{
	"patcher" : 	{
		"fileversion" : 1,
		"appversion" : 		{
			"major" : 8,
			"minor" : 6,
			"revision" : 0,
			"architecture" : "x64",
			"modernui" : 1
		}
,
		"classnamespace" : "box",
		"rect" : [ 379.0, 285.0, 1038.0, 725.0 ],
		"bglocked" : 0,
		"openinpresentation" : 0,
		"default_fontsize" : 12.0,
		"default_fontface" : 0,
		"default_fontname" : "Arial",
		"gridonopen" : 1,
		"gridsize" : [ 15.0, 15.0 ],
		"gridsnaponopen" : 1,
		"objectsnaponopen" : 1,
		"statusbarvisible" : 2,
		"toolbarvisible" : 1,
		"lefttoolbarpinned" : 0,
		"toptoolbarpinned" : 0,
		"righttoolbarpinned" : 0,
		"bottomtoolbarpinned" : 0,
		"toolbars_unpinned_last_save" : 0,
		"tallnewobj" : 0,
		"boxanimatetime" : 200,
		"enablehscroll" : 1,
		"enablevscroll" : 1,
		"devicewidth" : 0.0,
		"description" : "",
		"digest" : "",
		"tags" : "",
		"style" : "",
		"subpatcher_template" : "",
		"assistshowspatchername" : 0,
		"boxes" : [ 			{
				"box" : 				{
					"id" : "obj-35",
					"maxclass" : "button",
					"numinlets" : 1,
					"numoutlets" : 1,
					"outlettype" : [ "bang" ],
					"parameter_enable" : 0,
					"patching_rect" : [ 388.0, 229.0, 24.0, 24.0 ]
				}

			}
, 			{
				"box" : 				{
					"id" : "obj-9",
					"maxclass" : "newobj",
					"numinlets" : 1,
					"numoutlets" : 2,
					"outlettype" : [ "", "" ],
					"patcher" : 					{
						"fileversion" : 1,
						"appversion" : 						{
							"major" : 8,
							"minor" : 6,
							"revision" : 0,
							"architecture" : "x64",
							"modernui" : 1
						}
,
						"classnamespace" : "box",
						"rect" : [ 49.0, 499.0, 384.0, 517.0 ],
						"bglocked" : 0,
						"openinpresentation" : 0,
						"default_fontsize" : 12.0,
						"default_fontface" : 0,
						"default_fontname" : "Arial",
						"gridonopen" : 1,
						"gridsize" : [ 15.0, 15.0 ],
						"gridsnaponopen" : 1,
						"objectsnaponopen" : 1,
						"statusbarvisible" : 2,
						"toolbarvisible" : 1,
						"lefttoolbarpinned" : 0,
						"toptoolbarpinned" : 0,
						"righttoolbarpinned" : 0,
						"bottomtoolbarpinned" : 0,
						"toolbars_unpinned_last_save" : 0,
						"tallnewobj" : 0,
						"boxanimatetime" : 200,
						"enablehscroll" : 1,
						"enablevscroll" : 1,
						"devicewidth" : 0.0,
						"description" : "",
						"digest" : "",
						"tags" : "",
						"style" : "",
						"subpatcher_template" : "",
						"assistshowspatchername" : 0,
						"boxes" : [ 							{
								"box" : 								{
									"id" : "obj-49",
									"maxclass" : "newobj",
									"numinlets" : 1,
									"numoutlets" : 0,
									"patcher" : 									{
										"fileversion" : 1,
										"appversion" : 										{
											"major" : 8,
											"minor" : 6,
											"revision" : 0,
											"architecture" : "x64",
											"modernui" : 1
										}
,
										"classnamespace" : "box",
										"rect" : [ 59.0, 106.0, 368.0, 321.0 ],
										"bglocked" : 0,
										"openinpresentation" : 0,
										"default_fontsize" : 12.0,
										"default_fontface" : 0,
										"default_fontname" : "Arial",
										"gridonopen" : 1,
										"gridsize" : [ 15.0, 15.0 ],
										"gridsnaponopen" : 1,
										"objectsnaponopen" : 1,
										"statusbarvisible" : 2,
										"toolbarvisible" : 1,
										"lefttoolbarpinned" : 0,
										"toptoolbarpinned" : 0,
										"righttoolbarpinned" : 0,
										"bottomtoolbarpinned" : 0,
										"toolbars_unpinned_last_save" : 0,
										"tallnewobj" : 0,
										"boxanimatetime" : 200,
										"enablehscroll" : 1,
										"enablevscroll" : 1,
										"devicewidth" : 0.0,
										"description" : "",
										"digest" : "",
										"tags" : "",
										"style" : "",
										"subpatcher_template" : "",
										"assistshowspatchername" : 0,
										"boxes" : [ 											{
												"box" : 												{
													"id" : "obj-1",
													"maxclass" : "newobj",
													"numinlets" : 2,
													"numoutlets" : 2,
													"outlettype" : [ "", "" ],
													"patching_rect" : [ 50.0, 80.0, 55.0, 22.0 ],
													"text" : "zl.slice 1"
												}

											}
, 											{
												"box" : 												{
													"id" : "obj-3",
													"maxclass" : "newobj",
													"numinlets" : 2,
													"numoutlets" : 2,
													"outlettype" : [ "", "" ],
													"patching_rect" : [ 50.0, 185.0, 60.0, 22.0 ],
													"text" : "zl change"
												}

											}
, 											{
												"box" : 												{
													"id" : "obj-13",
													"maxclass" : "newobj",
													"numinlets" : 2,
													"numoutlets" : 2,
													"outlettype" : [ "", "" ],
													"patching_rect" : [ 50.0, 154.0, 55.0, 22.0 ],
													"text" : "zl slice 1"
												}

											}
, 											{
												"box" : 												{
													"id" : "obj-14",
													"maxclass" : "newobj",
													"numinlets" : 1,
													"numoutlets" : 1,
													"outlettype" : [ "" ],
													"patching_rect" : [ 50.0, 119.0, 143.0, 22.0 ],
													"text" : "fromsymbol @separator /"
												}

											}
, 											{
												"box" : 												{
													"id" : "obj-10",
													"maxclass" : "newobj",
													"numinlets" : 1,
													"numoutlets" : 0,
													"patching_rect" : [ 50.0, 224.0, 119.0, 22.0 ],
													"text" : "s #0.devicename"
												}

											}
, 											{
												"box" : 												{
													"comment" : "",
													"id" : "obj-42",
													"index" : 1,
													"maxclass" : "inlet",
													"numinlets" : 0,
													"numoutlets" : 1,
													"outlettype" : [ "" ],
													"patching_rect" : [ 50.0, 14.0, 30.0, 30.0 ]
												}

											}
 ],
										"lines" : [ 											{
												"patchline" : 												{
													"destination" : [ "obj-14", 0 ],
													"source" : [ "obj-1", 0 ]
												}

											}
, 											{
												"patchline" : 												{
													"destination" : [ "obj-3", 0 ],
													"source" : [ "obj-13", 0 ]
												}

											}
, 											{
												"patchline" : 												{
													"destination" : [ "obj-13", 0 ],
													"source" : [ "obj-14", 0 ]
												}

											}
, 											{
												"patchline" : 												{
													"destination" : [ "obj-10", 0 ],
													"source" : [ "obj-3", 0 ]
												}

											}
, 											{
												"patchline" : 												{
													"destination" : [ "obj-1", 0 ],
													"source" : [ "obj-42", 0 ]
												}

											}
 ]
									}
,
									"patching_rect" : [ 119.0, 142.0, 83.0, 22.0 ],
									"saved_object_attributes" : 									{
										"description" : "",
										"digest" : "",
										"globalpatchername" : "",
										"tags" : ""
									}
,
									"text" : "p devicename"
								}

							}
, 							{
								"box" : 								{
									"comment" : "",
									"id" : "obj-11",
									"index" : 2,
									"maxclass" : "outlet",
									"numinlets" : 1,
									"numoutlets" : 0,
									"patching_rect" : [ 232.0, 468.0, 30.0, 30.0 ]
								}

							}
, 							{
								"box" : 								{
									"id" : "obj-9",
									"maxclass" : "message",
									"numinlets" : 2,
									"numoutlets" : 1,
									"outlettype" : [ "" ],
									"patching_rect" : [ 232.0, 228.0, 86.0, 22.0 ],
									"text" : "get addresslist"
								}

							}
, 							{
								"box" : 								{
									"id" : "obj-1",
									"maxclass" : "newobj",
									"numinlets" : 2,
									"numoutlets" : 2,
									"outlettype" : [ "bang", "" ],
									"patching_rect" : [ 53.0, 142.0, 34.0, 22.0 ],
									"text" : "sel 1"
								}

							}
, 							{
								"box" : 								{
									"id" : "obj-67",
									"linecount" : 2,
									"maxclass" : "newobj",
									"numinlets" : 1,
									"numoutlets" : 4,
									"outlettype" : [ "", "", "", "" ],
									"patching_rect" : [ 53.0, 198.0, 146.0, 35.0 ],
									"saved_object_attributes" : 									{
										"embed" : 0,
										"precision" : 6
									}
,
									"text" : "coll #1.OSCaddresses"
								}

							}
, 							{
								"box" : 								{
									"id" : "obj-20",
									"maxclass" : "newobj",
									"numinlets" : 2,
									"numoutlets" : 2,
									"outlettype" : [ "bang", "" ],
									"patching_rect" : [ 53.0, 287.0, 34.0, 22.0 ],
									"text" : "sel 1"
								}

							}
, 							{
								"box" : 								{
									"id" : "obj-19",
									"maxclass" : "newobj",
									"numinlets" : 1,
									"numoutlets" : 2,
									"outlettype" : [ "int", "int" ],
									"patching_rect" : [ 53.0, 228.0, 29.5, 22.0 ],
									"text" : "t i i"
								}

							}
, 							{
								"box" : 								{
									"id" : "obj-18",
									"maxclass" : "newobj",
									"numinlets" : 1,
									"numoutlets" : 1,
									"outlettype" : [ "int" ],
									"patching_rect" : [ 53.0, 315.0, 22.0, 22.0 ],
									"text" : "t 1"
								}

							}
, 							{
								"box" : 								{
									"id" : "obj-17",
									"maxclass" : "newobj",
									"numinlets" : 2,
									"numoutlets" : 1,
									"outlettype" : [ "int" ],
									"patching_rect" : [ 53.0, 260.0, 29.5, 22.0 ],
									"text" : "> 1"
								}

							}
, 							{
								"box" : 								{
									"id" : "obj-22",
									"maxclass" : "newobj",
									"numinlets" : 3,
									"numoutlets" : 3,
									"outlettype" : [ "", "", "" ],
									"patching_rect" : [ 53.0, 115.0, 149.0, 22.0 ],
									"text" : "route initialized addresslist"
								}

							}
, 							{
								"box" : 								{
									"id" : "obj-7",
									"maxclass" : "newobj",
									"numinlets" : 1,
									"numoutlets" : 2,
									"outlettype" : [ "length", "bang" ],
									"patching_rect" : [ 53.0, 171.0, 198.0, 22.0 ],
									"text" : "t length b"
								}

							}
, 							{
								"box" : 								{
									"comment" : "",
									"id" : "obj-6",
									"index" : 1,
									"maxclass" : "inlet",
									"numinlets" : 0,
									"numoutlets" : 1,
									"outlettype" : [ "" ],
									"patching_rect" : [ 53.0, 68.0, 30.0, 30.0 ]
								}

							}
, 							{
								"box" : 								{
									"id" : "obj-5",
									"maxclass" : "newobj",
									"numinlets" : 1,
									"numoutlets" : 2,
									"outlettype" : [ "bang", "int" ],
									"patching_rect" : [ 53.0, 401.0, 32.0, 22.0 ],
									"text" : "t b 0"
								}

							}
, 							{
								"box" : 								{
									"id" : "obj-4",
									"maxclass" : "newobj",
									"numinlets" : 2,
									"numoutlets" : 1,
									"outlettype" : [ "" ],
									"patching_rect" : [ 53.0, 348.0, 52.0, 22.0 ],
									"text" : "gate 1 0"
								}

							}
, 							{
								"box" : 								{
									"id" : "obj-3",
									"linecount" : 4,
									"maxclass" : "comment",
									"numinlets" : 1,
									"numoutlets" : 0,
									"patching_rect" : [ 113.5, 53.0, 165.0, 60.0 ],
									"text" : "If channelcount increased, redump values when DSP is switched on, so that new MC channels do receive values."
								}

							}
, 							{
								"box" : 								{
									"id" : "obj-15",
									"maxclass" : "message",
									"numinlets" : 2,
									"numoutlets" : 1,
									"outlettype" : [ "" ],
									"patching_rect" : [ 53.0, 442.0, 63.0, 22.0 ],
									"text" : "get values"
								}

							}
, 							{
								"box" : 								{
									"id" : "obj-10",
									"maxclass" : "newobj",
									"numinlets" : 2,
									"numoutlets" : 2,
									"outlettype" : [ "bang", "" ],
									"patching_rect" : [ 53.0, 374.0, 34.0, 22.0 ],
									"text" : "sel 1"
								}

							}
, 							{
								"box" : 								{
									"id" : "obj-2",
									"maxclass" : "newobj",
									"numinlets" : 1,
									"numoutlets" : 4,
									"outlettype" : [ "int", "float", "int", "int" ],
									"patching_rect" : [ 86.0, 315.0, 61.0, 22.0 ],
									"text" : "dspstate~"
								}

							}
, 							{
								"box" : 								{
									"comment" : "",
									"id" : "obj-16",
									"index" : 1,
									"maxclass" : "outlet",
									"numinlets" : 1,
									"numoutlets" : 0,
									"patching_rect" : [ 53.0, 468.0, 30.0, 30.0 ]
								}

							}
 ],
						"lines" : [ 							{
								"patchline" : 								{
									"destination" : [ "obj-7", 0 ],
									"source" : [ "obj-1", 0 ]
								}

							}
, 							{
								"patchline" : 								{
									"destination" : [ "obj-5", 0 ],
									"source" : [ "obj-10", 0 ]
								}

							}
, 							{
								"patchline" : 								{
									"destination" : [ "obj-16", 0 ],
									"source" : [ "obj-15", 0 ]
								}

							}
, 							{
								"patchline" : 								{
									"destination" : [ "obj-20", 0 ],
									"source" : [ "obj-17", 0 ]
								}

							}
, 							{
								"patchline" : 								{
									"destination" : [ "obj-4", 0 ],
									"source" : [ "obj-18", 0 ]
								}

							}
, 							{
								"patchline" : 								{
									"destination" : [ "obj-17", 0 ],
									"source" : [ "obj-19", 1 ]
								}

							}
, 							{
								"patchline" : 								{
									"destination" : [ "obj-17", 1 ],
									"source" : [ "obj-19", 0 ]
								}

							}
, 							{
								"patchline" : 								{
									"destination" : [ "obj-4", 1 ],
									"source" : [ "obj-2", 0 ]
								}

							}
, 							{
								"patchline" : 								{
									"destination" : [ "obj-18", 0 ],
									"source" : [ "obj-20", 0 ]
								}

							}
, 							{
								"patchline" : 								{
									"destination" : [ "obj-1", 0 ],
									"source" : [ "obj-22", 0 ]
								}

							}
, 							{
								"patchline" : 								{
									"destination" : [ "obj-49", 0 ],
									"source" : [ "obj-22", 1 ]
								}

							}
, 							{
								"patchline" : 								{
									"destination" : [ "obj-10", 0 ],
									"source" : [ "obj-4", 0 ]
								}

							}
, 							{
								"patchline" : 								{
									"destination" : [ "obj-15", 0 ],
									"source" : [ "obj-5", 0 ]
								}

							}
, 							{
								"patchline" : 								{
									"destination" : [ "obj-4", 0 ],
									"midpoints" : [ 75.5, 430.915665729619263, 37.0, 430.915665729619263, 37.0, 344.62765141834916, 62.5, 344.62765141834916 ],
									"source" : [ "obj-5", 1 ]
								}

							}
, 							{
								"patchline" : 								{
									"destination" : [ "obj-22", 0 ],
									"source" : [ "obj-6", 0 ]
								}

							}
, 							{
								"patchline" : 								{
									"destination" : [ "obj-19", 0 ],
									"source" : [ "obj-67", 0 ]
								}

							}
, 							{
								"patchline" : 								{
									"destination" : [ "obj-67", 0 ],
									"source" : [ "obj-7", 0 ]
								}

							}
, 							{
								"patchline" : 								{
									"destination" : [ "obj-9", 0 ],
									"source" : [ "obj-7", 1 ]
								}

							}
, 							{
								"patchline" : 								{
									"destination" : [ "obj-11", 0 ],
									"source" : [ "obj-9", 0 ]
								}

							}
 ]
					}
,
					"patching_rect" : [ 845.583333333333371, 130.0, 59.0, 22.0 ],
					"saved_object_attributes" : 					{
						"description" : "",
						"digest" : "",
						"globalpatchername" : "",
						"tags" : ""
					}
,
					"text" : "p redump"
				}

			}
, 			{
				"box" : 				{
					"id" : "obj-62",
					"maxclass" : "newobj",
					"numinlets" : 1,
					"numoutlets" : 2,
					"outlettype" : [ "int", "int" ],
					"patching_rect" : [ 709.0, 205.0, 100.0, 22.0 ],
					"text" : "unpack 0 0"
				}

			}
, 			{
				"box" : 				{
					"id" : "obj-61",
					"maxclass" : "message",
					"numinlets" : 2,
					"numoutlets" : 1,
					"outlettype" : [ "" ],
					"patching_rect" : [ 707.5, 173.0, 50.0, 22.0 ],
					"text" : "$3 $2"
				}

			}
, 			{
				"box" : 				{
					"id" : "obj-52",
					"maxclass" : "newobj",
					"numinlets" : 1,
					"numoutlets" : 2,
					"outlettype" : [ "", "" ],
					"patching_rect" : [ 626.5, 143.5, 100.0, 22.0 ],
					"text" : "t l l"
				}

			}
, 			{
				"box" : 				{
					"comment" : "ON parameter",
					"id" : "obj-8",
					"index" : 1,
					"maxclass" : "outlet",
					"numinlets" : 1,
					"numoutlets" : 0,
					"patching_rect" : [ 64.0, 641.500000000000114, 30.0, 30.0 ]
				}

			}
, 			{
				"box" : 				{
					"id" : "obj-2",
					"maxclass" : "newobj",
					"numinlets" : 1,
					"numoutlets" : 2,
					"outlettype" : [ "", "" ],
					"patching_rect" : [ 864.0, 55.0, 72.0, 22.0 ],
					"text" : "patcherargs"
				}

			}
, 			{
				"box" : 				{
					"bubble" : 1,
					"id" : "obj-36",
					"linecount" : 2,
					"maxclass" : "comment",
					"numinlets" : 1,
					"numoutlets" : 0,
					"patching_rect" : [ 1018.0, 143.5, 150.0, 37.0 ],
					"text" : "used to load the buffer names coll"
				}

			}
, 			{
				"box" : 				{
					"comment" : "to gain multiplier",
					"id" : "obj-33",
					"index" : 4,
					"maxclass" : "outlet",
					"numinlets" : 1,
					"numoutlets" : 0,
					"patching_rect" : [ 230.5, 641.500000000000114, 30.0, 30.0 ]
				}

			}
, 			{
				"box" : 				{
					"format" : 6,
					"id" : "obj-24",
					"maxclass" : "flonum",
					"numinlets" : 1,
					"numoutlets" : 2,
					"outlettype" : [ "", "bang" ],
					"parameter_enable" : 0,
					"patching_rect" : [ 230.5, 584.129240085364586, 50.0, 22.0 ]
				}

			}
, 			{
				"box" : 				{
					"id" : "obj-21",
					"maxclass" : "newobj",
					"numinlets" : 2,
					"numoutlets" : 1,
					"outlettype" : [ "" ],
					"patcher" : 					{
						"fileversion" : 1,
						"appversion" : 						{
							"major" : 8,
							"minor" : 6,
							"revision" : 0,
							"architecture" : "x64",
							"modernui" : 1
						}
,
						"classnamespace" : "box",
						"rect" : [ 44.0, 483.0, 313.0, 211.0 ],
						"bglocked" : 0,
						"openinpresentation" : 0,
						"default_fontsize" : 12.0,
						"default_fontface" : 0,
						"default_fontname" : "Arial",
						"gridonopen" : 1,
						"gridsize" : [ 15.0, 15.0 ],
						"gridsnaponopen" : 1,
						"objectsnaponopen" : 1,
						"statusbarvisible" : 2,
						"toolbarvisible" : 1,
						"lefttoolbarpinned" : 0,
						"toptoolbarpinned" : 0,
						"righttoolbarpinned" : 0,
						"bottomtoolbarpinned" : 0,
						"toolbars_unpinned_last_save" : 0,
						"tallnewobj" : 0,
						"boxanimatetime" : 200,
						"enablehscroll" : 1,
						"enablevscroll" : 1,
						"devicewidth" : 0.0,
						"description" : "",
						"digest" : "",
						"tags" : "",
						"style" : "",
						"subpatcher_template" : "",
						"assistshowspatchername" : 0,
						"boxes" : [ 							{
								"box" : 								{
									"id" : "obj-1",
									"maxclass" : "newobj",
									"numinlets" : 1,
									"numoutlets" : 1,
									"outlettype" : [ "" ],
									"patching_rect" : [ 41.0, 56.0, 39.0, 22.0 ],
									"text" : "dbtoa"
								}

							}
, 							{
								"box" : 								{
									"id" : "obj-7",
									"maxclass" : "newobj",
									"numinlets" : 1,
									"numoutlets" : 1,
									"outlettype" : [ "" ],
									"patching_rect" : [ 41.0, 90.5, 53.0, 22.0 ],
									"text" : "prepend"
								}

							}
, 							{
								"box" : 								{
									"id" : "obj-29",
									"maxclass" : "message",
									"numinlets" : 2,
									"numoutlets" : 1,
									"outlettype" : [ "" ],
									"patching_rect" : [ 81.5, 60.0, 89.0, 22.0 ],
									"text" : "set setvalue $1"
								}

							}
, 							{
								"box" : 								{
									"comment" : "",
									"id" : "obj-36",
									"index" : 1,
									"maxclass" : "inlet",
									"numinlets" : 0,
									"numoutlets" : 1,
									"outlettype" : [ "" ],
									"patching_rect" : [ 41.0, 17.0, 30.0, 30.0 ]
								}

							}
, 							{
								"box" : 								{
									"comment" : "",
									"id" : "obj-37",
									"index" : 2,
									"maxclass" : "inlet",
									"numinlets" : 0,
									"numoutlets" : 1,
									"outlettype" : [ "int" ],
									"patching_rect" : [ 81.5, 16.0, 30.0, 30.0 ]
								}

							}
, 							{
								"box" : 								{
									"comment" : "",
									"id" : "obj-38",
									"index" : 1,
									"maxclass" : "outlet",
									"numinlets" : 1,
									"numoutlets" : 0,
									"patching_rect" : [ 41.0, 121.5, 30.0, 30.0 ]
								}

							}
 ],
						"lines" : [ 							{
								"patchline" : 								{
									"destination" : [ "obj-7", 0 ],
									"source" : [ "obj-1", 0 ]
								}

							}
, 							{
								"patchline" : 								{
									"destination" : [ "obj-7", 0 ],
									"source" : [ "obj-29", 0 ]
								}

							}
, 							{
								"patchline" : 								{
									"destination" : [ "obj-1", 0 ],
									"source" : [ "obj-36", 0 ]
								}

							}
, 							{
								"patchline" : 								{
									"destination" : [ "obj-29", 0 ],
									"source" : [ "obj-37", 0 ]
								}

							}
, 							{
								"patchline" : 								{
									"destination" : [ "obj-38", 0 ],
									"source" : [ "obj-7", 0 ]
								}

							}
 ]
					}
,
					"patching_rect" : [ 230.5, 613.1292400853647, 179.0, 22.0 ],
					"saved_object_attributes" : 					{
						"description" : "",
						"digest" : "",
						"globalpatchername" : "",
						"tags" : ""
					}
,
					"text" : "p format"
				}

			}
, 			{
				"box" : 				{
					"color" : [ 0.407843137254902, 0.529411764705882, 0.36078431372549, 1.0 ],
					"id" : "obj-7",
					"linecount" : 2,
					"maxclass" : "newobj",
					"numinlets" : 2,
					"numoutlets" : 3,
					"outlettype" : [ "", "int", "" ],
					"patching_rect" : [ 230.5, 529.500000000000114, 343.0, 35.0 ],
					"text" : "mvc.parameter #1 level @type decimal @range -92 0. @clip both @description \"Output level\" @unit dB @default 0"
				}

			}
, 			{
				"box" : 				{
					"comment" : "to loop checker",
					"id" : "obj-1",
					"index" : 5,
					"maxclass" : "outlet",
					"numinlets" : 1,
					"numoutlets" : 0,
					"patching_rect" : [ 309.5, 641.500000000000114, 30.0, 30.0 ]
				}

			}
, 			{
				"box" : 				{
					"color" : [ 0.56078431372549, 0.619607843137255, 0.709803921568627, 1.0 ],
					"id" : "obj-50",
					"linecount" : 2,
					"maxclass" : "newobj",
					"numinlets" : 2,
					"numoutlets" : 3,
					"outlettype" : [ "", "int", "" ],
					"patching_rect" : [ 68.5, 117.0, 333.0, 35.0 ],
					"text" : "mvc.state #1 VU @type decimal @range -92 6 @clip both @description \"Signal meter\" @unit dB @default 0"
				}

			}
, 			{
				"box" : 				{
					"comment" : "",
					"id" : "obj-38",
					"index" : 1,
					"maxclass" : "inlet",
					"numinlets" : 0,
					"numoutlets" : 1,
					"outlettype" : [ "" ],
					"patching_rect" : [ 68.5, 15.0, 30.0, 30.0 ]
				}

			}
, 			{
				"box" : 				{
					"id" : "obj-34",
					"maxclass" : "newobj",
					"numinlets" : 2,
					"numoutlets" : 1,
					"outlettype" : [ "" ],
					"patcher" : 					{
						"fileversion" : 1,
						"appversion" : 						{
							"major" : 8,
							"minor" : 6,
							"revision" : 0,
							"architecture" : "x64",
							"modernui" : 1
						}
,
						"classnamespace" : "box",
						"rect" : [ 59.0, 104.0, 283.0, 256.0 ],
						"bglocked" : 0,
						"openinpresentation" : 0,
						"default_fontsize" : 12.0,
						"default_fontface" : 0,
						"default_fontname" : "Arial",
						"gridonopen" : 1,
						"gridsize" : [ 15.0, 15.0 ],
						"gridsnaponopen" : 1,
						"objectsnaponopen" : 1,
						"statusbarvisible" : 2,
						"toolbarvisible" : 1,
						"lefttoolbarpinned" : 0,
						"toptoolbarpinned" : 0,
						"righttoolbarpinned" : 0,
						"bottomtoolbarpinned" : 0,
						"toolbars_unpinned_last_save" : 0,
						"tallnewobj" : 0,
						"boxanimatetime" : 200,
						"enablehscroll" : 1,
						"enablevscroll" : 1,
						"devicewidth" : 0.0,
						"description" : "",
						"digest" : "",
						"tags" : "",
						"style" : "",
						"subpatcher_template" : "",
						"assistshowspatchername" : 0,
						"boxes" : [ 							{
								"box" : 								{
									"id" : "obj-23",
									"maxclass" : "message",
									"numinlets" : 2,
									"numoutlets" : 1,
									"outlettype" : [ "" ],
									"patching_rect" : [ 50.0, 126.41765578635011, 31.0, 22.0 ],
									"text" : "stop"
								}

							}
, 							{
								"box" : 								{
									"id" : "obj-10",
									"maxclass" : "newobj",
									"numinlets" : 3,
									"numoutlets" : 3,
									"outlettype" : [ "bang", "bang", "" ],
									"patching_rect" : [ 50.0, 100.0, 85.0, 22.0 ],
									"text" : "sel 0 1"
								}

							}
, 							{
								"box" : 								{
									"id" : "obj-9",
									"maxclass" : "message",
									"numinlets" : 2,
									"numoutlets" : 1,
									"outlettype" : [ "" ],
									"patching_rect" : [ 83.0, 126.41765578635011, 55.0, 22.0 ],
									"text" : "startloop"
								}

							}
, 							{
								"box" : 								{
									"comment" : "",
									"id" : "obj-24",
									"index" : 1,
									"maxclass" : "inlet",
									"numinlets" : 0,
									"numoutlets" : 1,
									"outlettype" : [ "int" ],
									"patching_rect" : [ 50.0, 56.000007786350096, 30.0, 30.0 ]
								}

							}
, 							{
								"box" : 								{
									"comment" : "",
									"id" : "obj-32",
									"index" : 2,
									"maxclass" : "inlet",
									"numinlets" : 0,
									"numoutlets" : 1,
									"outlettype" : [ "int" ],
									"patching_rect" : [ 147.5, 56.000007786350096, 30.0, 30.0 ]
								}

							}
, 							{
								"box" : 								{
									"comment" : "",
									"id" : "obj-33",
									"index" : 1,
									"maxclass" : "outlet",
									"numinlets" : 1,
									"numoutlets" : 0,
									"patching_rect" : [ 50.0, 200.91765578635011, 30.0, 30.0 ]
								}

							}
, 							{
								"box" : 								{
									"id" : "obj-7",
									"maxclass" : "newobj",
									"numinlets" : 1,
									"numoutlets" : 1,
									"outlettype" : [ "" ],
									"patching_rect" : [ 50.0, 170.41765578635011, 53.0, 22.0 ],
									"text" : "prepend"
								}

							}
, 							{
								"box" : 								{
									"id" : "obj-29",
									"maxclass" : "message",
									"numinlets" : 2,
									"numoutlets" : 1,
									"outlettype" : [ "" ],
									"patching_rect" : [ 147.5, 126.41765578635011, 89.0, 22.0 ],
									"text" : "set setvalue $1"
								}

							}
 ],
						"lines" : [ 							{
								"patchline" : 								{
									"destination" : [ "obj-23", 0 ],
									"source" : [ "obj-10", 0 ]
								}

							}
, 							{
								"patchline" : 								{
									"destination" : [ "obj-9", 0 ],
									"source" : [ "obj-10", 1 ]
								}

							}
, 							{
								"patchline" : 								{
									"destination" : [ "obj-7", 0 ],
									"source" : [ "obj-23", 0 ]
								}

							}
, 							{
								"patchline" : 								{
									"destination" : [ "obj-10", 0 ],
									"source" : [ "obj-24", 0 ]
								}

							}
, 							{
								"patchline" : 								{
									"destination" : [ "obj-7", 0 ],
									"source" : [ "obj-29", 0 ]
								}

							}
, 							{
								"patchline" : 								{
									"destination" : [ "obj-29", 0 ],
									"source" : [ "obj-32", 0 ]
								}

							}
, 							{
								"patchline" : 								{
									"destination" : [ "obj-33", 0 ],
									"source" : [ "obj-7", 0 ]
								}

							}
, 							{
								"patchline" : 								{
									"destination" : [ "obj-7", 0 ],
									"source" : [ "obj-9", 0 ]
								}

							}
 ]
					}
,
					"patching_rect" : [ 626.5, 319.999999786350088, 137.5, 22.0 ],
					"saved_object_attributes" : 					{
						"description" : "",
						"digest" : "",
						"globalpatchername" : "",
						"tags" : ""
					}
,
					"text" : "p format"
				}

			}
, 			{
				"box" : 				{
					"id" : "obj-3",
					"maxclass" : "newobj",
					"numinlets" : 2,
					"numoutlets" : 1,
					"outlettype" : [ "" ],
					"patcher" : 					{
						"fileversion" : 1,
						"appversion" : 						{
							"major" : 8,
							"minor" : 6,
							"revision" : 0,
							"architecture" : "x64",
							"modernui" : 1
						}
,
						"classnamespace" : "box",
						"rect" : [ 44.0, 483.0, 313.0, 211.0 ],
						"bglocked" : 0,
						"openinpresentation" : 0,
						"default_fontsize" : 12.0,
						"default_fontface" : 0,
						"default_fontname" : "Arial",
						"gridonopen" : 1,
						"gridsize" : [ 15.0, 15.0 ],
						"gridsnaponopen" : 1,
						"objectsnaponopen" : 1,
						"statusbarvisible" : 2,
						"toolbarvisible" : 1,
						"lefttoolbarpinned" : 0,
						"toptoolbarpinned" : 0,
						"righttoolbarpinned" : 0,
						"bottomtoolbarpinned" : 0,
						"toolbars_unpinned_last_save" : 0,
						"tallnewobj" : 0,
						"boxanimatetime" : 200,
						"enablehscroll" : 1,
						"enablevscroll" : 1,
						"devicewidth" : 0.0,
						"description" : "",
						"digest" : "",
						"tags" : "",
						"style" : "",
						"subpatcher_template" : "",
						"assistshowspatchername" : 0,
						"boxes" : [ 							{
								"box" : 								{
									"id" : "obj-7",
									"maxclass" : "newobj",
									"numinlets" : 1,
									"numoutlets" : 1,
									"outlettype" : [ "" ],
									"patching_rect" : [ 41.0, 90.5, 53.0, 22.0 ],
									"text" : "prepend"
								}

							}
, 							{
								"box" : 								{
									"id" : "obj-29",
									"maxclass" : "message",
									"numinlets" : 2,
									"numoutlets" : 1,
									"outlettype" : [ "" ],
									"patching_rect" : [ 81.5, 60.0, 89.0, 22.0 ],
									"text" : "set setvalue $1"
								}

							}
, 							{
								"box" : 								{
									"comment" : "",
									"id" : "obj-36",
									"index" : 1,
									"maxclass" : "inlet",
									"numinlets" : 0,
									"numoutlets" : 1,
									"outlettype" : [ "" ],
									"patching_rect" : [ 41.0, 17.0, 30.0, 30.0 ]
								}

							}
, 							{
								"box" : 								{
									"comment" : "",
									"id" : "obj-37",
									"index" : 2,
									"maxclass" : "inlet",
									"numinlets" : 0,
									"numoutlets" : 1,
									"outlettype" : [ "int" ],
									"patching_rect" : [ 81.5, 16.0, 30.0, 30.0 ]
								}

							}
, 							{
								"box" : 								{
									"comment" : "",
									"id" : "obj-38",
									"index" : 1,
									"maxclass" : "outlet",
									"numinlets" : 1,
									"numoutlets" : 0,
									"patching_rect" : [ 41.0, 121.5, 30.0, 30.0 ]
								}

							}
 ],
						"lines" : [ 							{
								"patchline" : 								{
									"destination" : [ "obj-7", 0 ],
									"source" : [ "obj-29", 0 ]
								}

							}
, 							{
								"patchline" : 								{
									"destination" : [ "obj-7", 0 ],
									"source" : [ "obj-36", 0 ]
								}

							}
, 							{
								"patchline" : 								{
									"destination" : [ "obj-29", 0 ],
									"source" : [ "obj-37", 0 ]
								}

							}
, 							{
								"patchline" : 								{
									"destination" : [ "obj-38", 0 ],
									"source" : [ "obj-7", 0 ]
								}

							}
 ]
					}
,
					"patching_rect" : [ 138.0, 319.082343999999978, 142.75, 22.0 ],
					"saved_object_attributes" : 					{
						"description" : "",
						"digest" : "",
						"globalpatchername" : "",
						"tags" : ""
					}
,
					"text" : "p format"
				}

			}
, 			{
				"box" : 				{
					"comment" : "speed value to sig~",
					"id" : "obj-17",
					"index" : 2,
					"maxclass" : "outlet",
					"numinlets" : 1,
					"numoutlets" : 0,
					"patching_rect" : [ 138.0, 641.500000000000114, 30.0, 30.0 ]
				}

			}
, 			{
				"box" : 				{
					"comment" : "dumpout",
					"id" : "obj-15",
					"index" : 6,
					"maxclass" : "outlet",
					"numinlets" : 1,
					"numoutlets" : 0,
					"patching_rect" : [ 942.5, 641.500000000000114, 30.0, 30.0 ]
				}

			}
, 			{
				"box" : 				{
					"color" : [ 0.631372549019608, 0.203921568627451, 0.196078431372549, 1.0 ],
					"id" : "obj-14",
					"maxclass" : "newobj",
					"numinlets" : 2,
					"numoutlets" : 2,
					"outlettype" : [ "", "" ],
					"patching_rect" : [ 556.5, 85.0, 405.0, 22.0 ],
					"text" : "mvc.model #1 #2 #3 @type mvc.groove~",
					"varname" : "mvc.model[1]"
				}

			}
, 			{
				"box" : 				{
					"format" : 6,
					"id" : "obj-25",
					"maxclass" : "flonum",
					"numinlets" : 1,
					"numoutlets" : 2,
					"outlettype" : [ "", "bang" ],
					"parameter_enable" : 0,
					"patching_rect" : [ 1040.5, 416.500000000000114, 50.0, 22.0 ]
				}

			}
, 			{
				"box" : 				{
					"id" : "obj-26",
					"maxclass" : "message",
					"numinlets" : 2,
					"numoutlets" : 1,
					"outlettype" : [ "" ],
					"patching_rect" : [ 1040.5, 443.000000000000114, 95.0, 22.0 ],
					"text" : "pitchshiftcent $1"
				}

			}
, 			{
				"box" : 				{
					"id" : "obj-27",
					"maxclass" : "newobj",
					"numinlets" : 2,
					"numoutlets" : 1,
					"outlettype" : [ "" ],
					"patcher" : 					{
						"fileversion" : 1,
						"appversion" : 						{
							"major" : 8,
							"minor" : 6,
							"revision" : 0,
							"architecture" : "x64",
							"modernui" : 1
						}
,
						"classnamespace" : "box",
						"rect" : [ 44.0, 483.0, 313.0, 211.0 ],
						"bglocked" : 0,
						"openinpresentation" : 0,
						"default_fontsize" : 12.0,
						"default_fontface" : 0,
						"default_fontname" : "Arial",
						"gridonopen" : 1,
						"gridsize" : [ 15.0, 15.0 ],
						"gridsnaponopen" : 1,
						"objectsnaponopen" : 1,
						"statusbarvisible" : 2,
						"toolbarvisible" : 1,
						"lefttoolbarpinned" : 0,
						"toptoolbarpinned" : 0,
						"righttoolbarpinned" : 0,
						"bottomtoolbarpinned" : 0,
						"toolbars_unpinned_last_save" : 0,
						"tallnewobj" : 0,
						"boxanimatetime" : 200,
						"enablehscroll" : 1,
						"enablevscroll" : 1,
						"devicewidth" : 0.0,
						"description" : "",
						"digest" : "",
						"tags" : "",
						"style" : "",
						"subpatcher_template" : "",
						"assistshowspatchername" : 0,
						"boxes" : [ 							{
								"box" : 								{
									"id" : "obj-7",
									"maxclass" : "newobj",
									"numinlets" : 1,
									"numoutlets" : 1,
									"outlettype" : [ "" ],
									"patching_rect" : [ 41.0, 90.5, 53.0, 22.0 ],
									"text" : "prepend"
								}

							}
, 							{
								"box" : 								{
									"id" : "obj-29",
									"maxclass" : "message",
									"numinlets" : 2,
									"numoutlets" : 1,
									"outlettype" : [ "" ],
									"patching_rect" : [ 81.5, 60.0, 89.0, 22.0 ],
									"text" : "set setvalue $1"
								}

							}
, 							{
								"box" : 								{
									"comment" : "",
									"id" : "obj-36",
									"index" : 1,
									"maxclass" : "inlet",
									"numinlets" : 0,
									"numoutlets" : 1,
									"outlettype" : [ "" ],
									"patching_rect" : [ 41.0, 17.0, 30.0, 30.0 ]
								}

							}
, 							{
								"box" : 								{
									"comment" : "",
									"id" : "obj-37",
									"index" : 2,
									"maxclass" : "inlet",
									"numinlets" : 0,
									"numoutlets" : 1,
									"outlettype" : [ "int" ],
									"patching_rect" : [ 81.5, 16.0, 30.0, 30.0 ]
								}

							}
, 							{
								"box" : 								{
									"comment" : "",
									"id" : "obj-38",
									"index" : 1,
									"maxclass" : "outlet",
									"numinlets" : 1,
									"numoutlets" : 0,
									"patching_rect" : [ 41.0, 121.5, 30.0, 30.0 ]
								}

							}
 ],
						"lines" : [ 							{
								"patchline" : 								{
									"destination" : [ "obj-7", 0 ],
									"source" : [ "obj-29", 0 ]
								}

							}
, 							{
								"patchline" : 								{
									"destination" : [ "obj-7", 0 ],
									"source" : [ "obj-36", 0 ]
								}

							}
, 							{
								"patchline" : 								{
									"destination" : [ "obj-29", 0 ],
									"source" : [ "obj-37", 0 ]
								}

							}
, 							{
								"patchline" : 								{
									"destination" : [ "obj-38", 0 ],
									"source" : [ "obj-7", 0 ]
								}

							}
 ]
					}
,
					"patching_rect" : [ 1040.5, 470.000000000000114, 106.0, 22.0 ],
					"saved_object_attributes" : 					{
						"description" : "",
						"digest" : "",
						"globalpatchername" : "",
						"tags" : ""
					}
,
					"text" : "p format"
				}

			}
, 			{
				"box" : 				{
					"color" : [ 0.407843137254902, 0.529411764705882, 0.36078431372549, 1.0 ],
					"id" : "obj-29",
					"linecount" : 4,
					"maxclass" : "newobj",
					"numinlets" : 2,
					"numoutlets" : 3,
					"outlettype" : [ "", "int", "" ],
					"patching_rect" : [ 1040.5, 348.500000000000114, 191.0, 62.0 ],
					"text" : "mvc.parameter #1 pitchshift @type decimal @description \"Pitch shift\" @unit cents @default 0"
				}

			}
, 			{
				"box" : 				{
					"id" : "obj-13",
					"maxclass" : "newobj",
					"numinlets" : 1,
					"numoutlets" : 1,
					"outlettype" : [ "" ],
					"patching_rect" : [ 176.0, 521.5, 19.0, 22.0 ],
					"text" : "t l"
				}

			}
, 			{
				"box" : 				{
					"id" : "obj-5",
					"maxclass" : "toggle",
					"numinlets" : 1,
					"numoutlets" : 1,
					"outlettype" : [ "int" ],
					"parameter_enable" : 0,
					"patching_rect" : [ 840.5, 416.500000000000114, 24.0, 24.0 ]
				}

			}
, 			{
				"box" : 				{
					"id" : "obj-57",
					"maxclass" : "toggle",
					"numinlets" : 1,
					"numoutlets" : 1,
					"outlettype" : [ "int" ],
					"parameter_enable" : 0,
					"patching_rect" : [ 199.0, 416.500000000000114, 24.0, 24.0 ]
				}

			}
, 			{
				"box" : 				{
					"id" : "obj-55",
					"maxclass" : "message",
					"numinlets" : 2,
					"numoutlets" : 1,
					"outlettype" : [ "" ],
					"patching_rect" : [ 199.0, 443.000000000000114, 48.0, 22.0 ],
					"text" : "loop $1"
				}

			}
, 			{
				"box" : 				{
					"id" : "obj-56",
					"maxclass" : "newobj",
					"numinlets" : 2,
					"numoutlets" : 2,
					"outlettype" : [ "", "" ],
					"patcher" : 					{
						"fileversion" : 1,
						"appversion" : 						{
							"major" : 8,
							"minor" : 6,
							"revision" : 0,
							"architecture" : "x64",
							"modernui" : 1
						}
,
						"classnamespace" : "box",
						"rect" : [ 44.0, 483.0, 505.0, 279.0 ],
						"bglocked" : 0,
						"openinpresentation" : 0,
						"default_fontsize" : 12.0,
						"default_fontface" : 0,
						"default_fontname" : "Arial",
						"gridonopen" : 1,
						"gridsize" : [ 15.0, 15.0 ],
						"gridsnaponopen" : 1,
						"objectsnaponopen" : 1,
						"statusbarvisible" : 2,
						"toolbarvisible" : 1,
						"lefttoolbarpinned" : 0,
						"toptoolbarpinned" : 0,
						"righttoolbarpinned" : 0,
						"bottomtoolbarpinned" : 0,
						"toolbars_unpinned_last_save" : 0,
						"tallnewobj" : 0,
						"boxanimatetime" : 200,
						"enablehscroll" : 1,
						"enablevscroll" : 1,
						"devicewidth" : 0.0,
						"description" : "",
						"digest" : "",
						"tags" : "",
						"style" : "",
						"subpatcher_template" : "",
						"assistshowspatchername" : 0,
						"boxes" : [ 							{
								"box" : 								{
									"id" : "obj-8",
									"maxclass" : "newobj",
									"numinlets" : 2,
									"numoutlets" : 1,
									"outlettype" : [ "int" ],
									"patching_rect" : [ 103.0, 82.0, 33.0, 22.0 ],
									"text" : "== 0"
								}

							}
, 							{
								"box" : 								{
									"id" : "obj-2",
									"maxclass" : "newobj",
									"numinlets" : 1,
									"numoutlets" : 1,
									"outlettype" : [ "" ],
									"patching_rect" : [ 103.0, 119.5, 53.0, 22.0 ],
									"text" : "prepend"
								}

							}
, 							{
								"box" : 								{
									"id" : "obj-3",
									"maxclass" : "message",
									"numinlets" : 2,
									"numoutlets" : 1,
									"outlettype" : [ "" ],
									"patching_rect" : [ 171.5, 56.0, 89.0, 22.0 ],
									"text" : "set setvalue $1"
								}

							}
, 							{
								"box" : 								{
									"comment" : "",
									"id" : "obj-4",
									"index" : 2,
									"maxclass" : "outlet",
									"numinlets" : 1,
									"numoutlets" : 0,
									"patching_rect" : [ 103.0, 150.5, 30.0, 30.0 ]
								}

							}
, 							{
								"box" : 								{
									"id" : "obj-1",
									"maxclass" : "newobj",
									"numinlets" : 2,
									"numoutlets" : 2,
									"outlettype" : [ "", "" ],
									"patching_rect" : [ 103.0, 56.0, 62.0, 22.0 ],
									"text" : "route loop"
								}

							}
, 							{
								"box" : 								{
									"id" : "obj-7",
									"maxclass" : "newobj",
									"numinlets" : 1,
									"numoutlets" : 1,
									"outlettype" : [ "" ],
									"patching_rect" : [ 41.0, 118.5, 53.0, 22.0 ],
									"text" : "prepend"
								}

							}
, 							{
								"box" : 								{
									"comment" : "",
									"id" : "obj-36",
									"index" : 1,
									"maxclass" : "inlet",
									"numinlets" : 0,
									"numoutlets" : 1,
									"outlettype" : [ "" ],
									"patching_rect" : [ 41.0, 17.0, 30.0, 30.0 ]
								}

							}
, 							{
								"box" : 								{
									"comment" : "",
									"id" : "obj-37",
									"index" : 2,
									"maxclass" : "inlet",
									"numinlets" : 0,
									"numoutlets" : 1,
									"outlettype" : [ "int" ],
									"patching_rect" : [ 171.5, 18.0, 30.0, 30.0 ]
								}

							}
, 							{
								"box" : 								{
									"comment" : "",
									"id" : "obj-38",
									"index" : 1,
									"maxclass" : "outlet",
									"numinlets" : 1,
									"numoutlets" : 0,
									"patching_rect" : [ 41.0, 149.5, 30.0, 30.0 ]
								}

							}
 ],
						"lines" : [ 							{
								"patchline" : 								{
									"destination" : [ "obj-8", 0 ],
									"source" : [ "obj-1", 0 ]
								}

							}
, 							{
								"patchline" : 								{
									"destination" : [ "obj-4", 0 ],
									"source" : [ "obj-2", 0 ]
								}

							}
, 							{
								"patchline" : 								{
									"destination" : [ "obj-2", 0 ],
									"order" : 0,
									"source" : [ "obj-3", 0 ]
								}

							}
, 							{
								"patchline" : 								{
									"destination" : [ "obj-7", 0 ],
									"order" : 1,
									"source" : [ "obj-3", 0 ]
								}

							}
, 							{
								"patchline" : 								{
									"destination" : [ "obj-1", 0 ],
									"order" : 0,
									"source" : [ "obj-36", 0 ]
								}

							}
, 							{
								"patchline" : 								{
									"destination" : [ "obj-7", 0 ],
									"order" : 1,
									"source" : [ "obj-36", 0 ]
								}

							}
, 							{
								"patchline" : 								{
									"destination" : [ "obj-3", 0 ],
									"source" : [ "obj-37", 0 ]
								}

							}
, 							{
								"patchline" : 								{
									"destination" : [ "obj-38", 0 ],
									"source" : [ "obj-7", 0 ]
								}

							}
, 							{
								"patchline" : 								{
									"destination" : [ "obj-2", 0 ],
									"source" : [ "obj-8", 0 ]
								}

							}
 ]
					}
,
					"patching_rect" : [ 199.0, 470.000000000000114, 129.5, 22.0 ],
					"saved_object_attributes" : 					{
						"description" : "",
						"digest" : "",
						"globalpatchername" : "",
						"tags" : ""
					}
,
					"text" : "p format"
				}

			}
, 			{
				"box" : 				{
					"format" : 6,
					"id" : "obj-46",
					"maxclass" : "flonum",
					"numinlets" : 1,
					"numoutlets" : 2,
					"outlettype" : [ "", "bang" ],
					"parameter_enable" : 0,
					"patching_rect" : [ 641.5, 416.500000000000114, 50.0, 22.0 ]
				}

			}
, 			{
				"box" : 				{
					"id" : "obj-47",
					"maxclass" : "message",
					"numinlets" : 2,
					"numoutlets" : 1,
					"outlettype" : [ "" ],
					"patching_rect" : [ 641.5, 443.000000000000114, 84.0, 22.0 ],
					"text" : "loopend $1"
				}

			}
, 			{
				"box" : 				{
					"id" : "obj-48",
					"maxclass" : "newobj",
					"numinlets" : 2,
					"numoutlets" : 1,
					"outlettype" : [ "" ],
					"patcher" : 					{
						"fileversion" : 1,
						"appversion" : 						{
							"major" : 8,
							"minor" : 6,
							"revision" : 0,
							"architecture" : "x64",
							"modernui" : 1
						}
,
						"classnamespace" : "box",
						"rect" : [ 44.0, 483.0, 313.0, 211.0 ],
						"bglocked" : 0,
						"openinpresentation" : 0,
						"default_fontsize" : 12.0,
						"default_fontface" : 0,
						"default_fontname" : "Arial",
						"gridonopen" : 1,
						"gridsize" : [ 15.0, 15.0 ],
						"gridsnaponopen" : 1,
						"objectsnaponopen" : 1,
						"statusbarvisible" : 2,
						"toolbarvisible" : 1,
						"lefttoolbarpinned" : 0,
						"toptoolbarpinned" : 0,
						"righttoolbarpinned" : 0,
						"bottomtoolbarpinned" : 0,
						"toolbars_unpinned_last_save" : 0,
						"tallnewobj" : 0,
						"boxanimatetime" : 200,
						"enablehscroll" : 1,
						"enablevscroll" : 1,
						"devicewidth" : 0.0,
						"description" : "",
						"digest" : "",
						"tags" : "",
						"style" : "",
						"subpatcher_template" : "",
						"assistshowspatchername" : 0,
						"boxes" : [ 							{
								"box" : 								{
									"id" : "obj-7",
									"maxclass" : "newobj",
									"numinlets" : 1,
									"numoutlets" : 1,
									"outlettype" : [ "" ],
									"patching_rect" : [ 41.0, 90.5, 53.0, 22.0 ],
									"text" : "prepend"
								}

							}
, 							{
								"box" : 								{
									"id" : "obj-29",
									"maxclass" : "message",
									"numinlets" : 2,
									"numoutlets" : 1,
									"outlettype" : [ "" ],
									"patching_rect" : [ 81.5, 60.0, 89.0, 22.0 ],
									"text" : "set setvalue $1"
								}

							}
, 							{
								"box" : 								{
									"comment" : "",
									"id" : "obj-36",
									"index" : 1,
									"maxclass" : "inlet",
									"numinlets" : 0,
									"numoutlets" : 1,
									"outlettype" : [ "" ],
									"patching_rect" : [ 41.0, 17.0, 30.0, 30.0 ]
								}

							}
, 							{
								"box" : 								{
									"comment" : "",
									"id" : "obj-37",
									"index" : 2,
									"maxclass" : "inlet",
									"numinlets" : 0,
									"numoutlets" : 1,
									"outlettype" : [ "int" ],
									"patching_rect" : [ 81.5, 16.0, 30.0, 30.0 ]
								}

							}
, 							{
								"box" : 								{
									"comment" : "",
									"id" : "obj-38",
									"index" : 1,
									"maxclass" : "outlet",
									"numinlets" : 1,
									"numoutlets" : 0,
									"patching_rect" : [ 41.0, 121.5, 30.0, 30.0 ]
								}

							}
 ],
						"lines" : [ 							{
								"patchline" : 								{
									"destination" : [ "obj-7", 0 ],
									"source" : [ "obj-29", 0 ]
								}

							}
, 							{
								"patchline" : 								{
									"destination" : [ "obj-7", 0 ],
									"source" : [ "obj-36", 0 ]
								}

							}
, 							{
								"patchline" : 								{
									"destination" : [ "obj-29", 0 ],
									"source" : [ "obj-37", 0 ]
								}

							}
, 							{
								"patchline" : 								{
									"destination" : [ "obj-38", 0 ],
									"source" : [ "obj-7", 0 ]
								}

							}
 ]
					}
,
					"patching_rect" : [ 641.5, 470.000000000000114, 106.0, 22.0 ],
					"saved_object_attributes" : 					{
						"description" : "",
						"digest" : "",
						"globalpatchername" : "",
						"tags" : ""
					}
,
					"text" : "p format"
				}

			}
, 			{
				"box" : 				{
					"format" : 6,
					"id" : "obj-43",
					"maxclass" : "flonum",
					"numinlets" : 1,
					"numoutlets" : 2,
					"outlettype" : [ "", "bang" ],
					"parameter_enable" : 0,
					"patching_rect" : [ 442.5, 416.500000000000114, 50.0, 22.0 ]
				}

			}
, 			{
				"box" : 				{
					"id" : "obj-44",
					"maxclass" : "message",
					"numinlets" : 2,
					"numoutlets" : 1,
					"outlettype" : [ "" ],
					"patching_rect" : [ 442.5, 443.000000000000114, 84.0, 22.0 ],
					"text" : "loopstart $1"
				}

			}
, 			{
				"box" : 				{
					"id" : "obj-45",
					"maxclass" : "newobj",
					"numinlets" : 2,
					"numoutlets" : 1,
					"outlettype" : [ "" ],
					"patcher" : 					{
						"fileversion" : 1,
						"appversion" : 						{
							"major" : 8,
							"minor" : 6,
							"revision" : 0,
							"architecture" : "x64",
							"modernui" : 1
						}
,
						"classnamespace" : "box",
						"rect" : [ 44.0, 483.0, 313.0, 211.0 ],
						"bglocked" : 0,
						"openinpresentation" : 0,
						"default_fontsize" : 12.0,
						"default_fontface" : 0,
						"default_fontname" : "Arial",
						"gridonopen" : 1,
						"gridsize" : [ 15.0, 15.0 ],
						"gridsnaponopen" : 1,
						"objectsnaponopen" : 1,
						"statusbarvisible" : 2,
						"toolbarvisible" : 1,
						"lefttoolbarpinned" : 0,
						"toptoolbarpinned" : 0,
						"righttoolbarpinned" : 0,
						"bottomtoolbarpinned" : 0,
						"toolbars_unpinned_last_save" : 0,
						"tallnewobj" : 0,
						"boxanimatetime" : 200,
						"enablehscroll" : 1,
						"enablevscroll" : 1,
						"devicewidth" : 0.0,
						"description" : "",
						"digest" : "",
						"tags" : "",
						"style" : "",
						"subpatcher_template" : "",
						"assistshowspatchername" : 0,
						"boxes" : [ 							{
								"box" : 								{
									"id" : "obj-7",
									"maxclass" : "newobj",
									"numinlets" : 1,
									"numoutlets" : 1,
									"outlettype" : [ "" ],
									"patching_rect" : [ 41.0, 90.5, 53.0, 22.0 ],
									"text" : "prepend"
								}

							}
, 							{
								"box" : 								{
									"id" : "obj-29",
									"maxclass" : "message",
									"numinlets" : 2,
									"numoutlets" : 1,
									"outlettype" : [ "" ],
									"patching_rect" : [ 81.5, 60.0, 89.0, 22.0 ],
									"text" : "set setvalue $1"
								}

							}
, 							{
								"box" : 								{
									"comment" : "",
									"id" : "obj-36",
									"index" : 1,
									"maxclass" : "inlet",
									"numinlets" : 0,
									"numoutlets" : 1,
									"outlettype" : [ "" ],
									"patching_rect" : [ 41.0, 17.0, 30.0, 30.0 ]
								}

							}
, 							{
								"box" : 								{
									"comment" : "",
									"id" : "obj-37",
									"index" : 2,
									"maxclass" : "inlet",
									"numinlets" : 0,
									"numoutlets" : 1,
									"outlettype" : [ "int" ],
									"patching_rect" : [ 81.5, 16.0, 30.0, 30.0 ]
								}

							}
, 							{
								"box" : 								{
									"comment" : "",
									"id" : "obj-38",
									"index" : 1,
									"maxclass" : "outlet",
									"numinlets" : 1,
									"numoutlets" : 0,
									"patching_rect" : [ 41.0, 121.5, 30.0, 30.0 ]
								}

							}
 ],
						"lines" : [ 							{
								"patchline" : 								{
									"destination" : [ "obj-7", 0 ],
									"source" : [ "obj-29", 0 ]
								}

							}
, 							{
								"patchline" : 								{
									"destination" : [ "obj-7", 0 ],
									"source" : [ "obj-36", 0 ]
								}

							}
, 							{
								"patchline" : 								{
									"destination" : [ "obj-29", 0 ],
									"source" : [ "obj-37", 0 ]
								}

							}
, 							{
								"patchline" : 								{
									"destination" : [ "obj-38", 0 ],
									"source" : [ "obj-7", 0 ]
								}

							}
 ]
					}
,
					"patching_rect" : [ 442.5, 470.000000000000114, 106.0, 22.0 ],
					"saved_object_attributes" : 					{
						"description" : "",
						"digest" : "",
						"globalpatchername" : "",
						"tags" : ""
					}
,
					"text" : "p format"
				}

			}
, 			{
				"box" : 				{
					"id" : "obj-37",
					"maxclass" : "message",
					"numinlets" : 2,
					"numoutlets" : 1,
					"outlettype" : [ "" ],
					"patching_rect" : [ 840.5, 443.000000000000114, 84.0, 22.0 ],
					"text" : "timestretch $1"
				}

			}
, 			{
				"box" : 				{
					"id" : "obj-28",
					"maxclass" : "newobj",
					"numinlets" : 2,
					"numoutlets" : 1,
					"outlettype" : [ "" ],
					"patcher" : 					{
						"fileversion" : 1,
						"appversion" : 						{
							"major" : 8,
							"minor" : 6,
							"revision" : 0,
							"architecture" : "x64",
							"modernui" : 1
						}
,
						"classnamespace" : "box",
						"rect" : [ 44.0, 483.0, 313.0, 211.0 ],
						"bglocked" : 0,
						"openinpresentation" : 0,
						"default_fontsize" : 12.0,
						"default_fontface" : 0,
						"default_fontname" : "Arial",
						"gridonopen" : 1,
						"gridsize" : [ 15.0, 15.0 ],
						"gridsnaponopen" : 1,
						"objectsnaponopen" : 1,
						"statusbarvisible" : 2,
						"toolbarvisible" : 1,
						"lefttoolbarpinned" : 0,
						"toptoolbarpinned" : 0,
						"righttoolbarpinned" : 0,
						"bottomtoolbarpinned" : 0,
						"toolbars_unpinned_last_save" : 0,
						"tallnewobj" : 0,
						"boxanimatetime" : 200,
						"enablehscroll" : 1,
						"enablevscroll" : 1,
						"devicewidth" : 0.0,
						"description" : "",
						"digest" : "",
						"tags" : "",
						"style" : "",
						"subpatcher_template" : "",
						"assistshowspatchername" : 0,
						"boxes" : [ 							{
								"box" : 								{
									"id" : "obj-7",
									"maxclass" : "newobj",
									"numinlets" : 1,
									"numoutlets" : 1,
									"outlettype" : [ "" ],
									"patching_rect" : [ 41.0, 90.5, 53.0, 22.0 ],
									"text" : "prepend"
								}

							}
, 							{
								"box" : 								{
									"id" : "obj-29",
									"maxclass" : "message",
									"numinlets" : 2,
									"numoutlets" : 1,
									"outlettype" : [ "" ],
									"patching_rect" : [ 81.5, 60.0, 89.0, 22.0 ],
									"text" : "set setvalue $1"
								}

							}
, 							{
								"box" : 								{
									"comment" : "",
									"id" : "obj-36",
									"index" : 1,
									"maxclass" : "inlet",
									"numinlets" : 0,
									"numoutlets" : 1,
									"outlettype" : [ "" ],
									"patching_rect" : [ 41.0, 17.0, 30.0, 30.0 ]
								}

							}
, 							{
								"box" : 								{
									"comment" : "",
									"id" : "obj-37",
									"index" : 2,
									"maxclass" : "inlet",
									"numinlets" : 0,
									"numoutlets" : 1,
									"outlettype" : [ "int" ],
									"patching_rect" : [ 81.5, 16.0, 30.0, 30.0 ]
								}

							}
, 							{
								"box" : 								{
									"comment" : "",
									"id" : "obj-38",
									"index" : 1,
									"maxclass" : "outlet",
									"numinlets" : 1,
									"numoutlets" : 0,
									"patching_rect" : [ 41.0, 121.5, 30.0, 30.0 ]
								}

							}
 ],
						"lines" : [ 							{
								"patchline" : 								{
									"destination" : [ "obj-7", 0 ],
									"source" : [ "obj-29", 0 ]
								}

							}
, 							{
								"patchline" : 								{
									"destination" : [ "obj-7", 0 ],
									"source" : [ "obj-36", 0 ]
								}

							}
, 							{
								"patchline" : 								{
									"destination" : [ "obj-29", 0 ],
									"source" : [ "obj-37", 0 ]
								}

							}
, 							{
								"patchline" : 								{
									"destination" : [ "obj-38", 0 ],
									"source" : [ "obj-7", 0 ]
								}

							}
 ]
					}
,
					"patching_rect" : [ 840.5, 470.000000000000114, 106.0, 22.0 ],
					"saved_object_attributes" : 					{
						"description" : "",
						"digest" : "",
						"globalpatchername" : "",
						"tags" : ""
					}
,
					"text" : "p format"
				}

			}
, 			{
				"box" : 				{
					"color" : [ 0.407843137254902, 0.529411764705882, 0.36078431372549, 1.0 ],
					"id" : "obj-22",
					"linecount" : 4,
					"maxclass" : "newobj",
					"numinlets" : 2,
					"numoutlets" : 3,
					"outlettype" : [ "", "int", "" ],
					"patching_rect" : [ 840.5, 348.500000000000114, 208.0, 62.0 ],
					"text" : "mvc.parameter #1 timestretch @type integer @range 0. 1. @clip both @description \"Time stretch\" @unit none @default 0"
				}

			}
, 			{
				"box" : 				{
					"color" : [ 0.407843137254902, 0.529411764705882, 0.36078431372549, 1.0 ],
					"id" : "obj-18",
					"linecount" : 3,
					"maxclass" : "newobj",
					"numinlets" : 2,
					"numoutlets" : 3,
					"outlettype" : [ "", "int", "" ],
					"patching_rect" : [ 642.5, 361.500000000000114, 213.0, 49.0 ],
					"text" : "mvc.parameter #1 loopend @type decimal @description \"Loop end\" @unit ms @default 0"
				}

			}
, 			{
				"box" : 				{
					"color" : [ 0.407843137254902, 0.529411764705882, 0.36078431372549, 1.0 ],
					"id" : "obj-12",
					"linecount" : 3,
					"maxclass" : "newobj",
					"numinlets" : 2,
					"numoutlets" : 3,
					"outlettype" : [ "", "int", "" ],
					"patching_rect" : [ 443.5, 361.500000000000114, 216.0, 49.0 ],
					"text" : "mvc.parameter #1 loopstart @type decimal @description \"Loop start\" @unit ms @default 0"
				}

			}
, 			{
				"box" : 				{
					"id" : "obj-40",
					"maxclass" : "toggle",
					"numinlets" : 1,
					"numoutlets" : 1,
					"outlettype" : [ "int" ],
					"parameter_enable" : 0,
					"patching_rect" : [ 626.5, 292.5, 24.0, 24.0 ]
				}

			}
, 			{
				"box" : 				{
					"color" : [ 0.407843137254902, 0.529411764705882, 0.36078431372549, 1.0 ],
					"id" : "obj-4",
					"linecount" : 3,
					"maxclass" : "newobj",
					"numinlets" : 2,
					"numoutlets" : 3,
					"outlettype" : [ "", "int", "" ],
					"patching_rect" : [ 626.5, 235.41765578635011, 256.0, 49.0 ],
					"text" : "mvc.parameter #1 play @type integer @range 0. 1. @clip both @description \"Start/stop playing\" @unit none @default 0"
				}

			}
, 			{
				"box" : 				{
					"color" : [ 0.407843137254902, 0.529411764705882, 0.36078431372549, 1.0 ],
					"id" : "obj-16",
					"linecount" : 3,
					"maxclass" : "newobj",
					"numinlets" : 2,
					"numoutlets" : 3,
					"outlettype" : [ "", "int", "" ],
					"patching_rect" : [ 200.0, 361.500000000000114, 255.0, 49.0 ],
					"text" : "mvc.parameter #1 loop @type integer @range 0. 1. @clip both @description \"Loop mode\" @unit none @default 0"
				}

			}
, 			{
				"box" : 				{
					"color" : [ 0.407843137254902, 0.529411764705882, 0.36078431372549, 1.0 ],
					"id" : "obj-31",
					"linecount" : 4,
					"maxclass" : "newobj",
					"numinlets" : 2,
					"numoutlets" : 3,
					"outlettype" : [ "", "int", "" ],
					"patching_rect" : [ 138.0, 221.5, 236.0, 62.0 ],
					"text" : "mvc.parameter #1 speed @type decimal @range -10. 10. @clip both @description \"Playing speed\" @unit none @default 1"
				}

			}
, 			{
				"box" : 				{
					"format" : 6,
					"id" : "obj-11",
					"maxclass" : "flonum",
					"maximum" : 10.0,
					"minimum" : -10.0,
					"numinlets" : 1,
					"numoutlets" : 2,
					"outlettype" : [ "", "bang" ],
					"parameter_enable" : 0,
					"patching_rect" : [ 138.0, 292.5, 50.0, 22.0 ]
				}

			}
, 			{
				"box" : 				{
					"id" : "obj-39",
					"maxclass" : "newobj",
					"numinlets" : 2,
					"numoutlets" : 1,
					"outlettype" : [ "" ],
					"patcher" : 					{
						"fileversion" : 1,
						"appversion" : 						{
							"major" : 8,
							"minor" : 6,
							"revision" : 0,
							"architecture" : "x64",
							"modernui" : 1
						}
,
						"classnamespace" : "box",
						"rect" : [ 535.0, 306.0, 663.0, 488.0 ],
						"bglocked" : 0,
						"openinpresentation" : 0,
						"default_fontsize" : 12.0,
						"default_fontface" : 0,
						"default_fontname" : "Arial",
						"gridonopen" : 1,
						"gridsize" : [ 15.0, 15.0 ],
						"gridsnaponopen" : 1,
						"objectsnaponopen" : 1,
						"statusbarvisible" : 2,
						"toolbarvisible" : 1,
						"lefttoolbarpinned" : 0,
						"toptoolbarpinned" : 0,
						"righttoolbarpinned" : 0,
						"bottomtoolbarpinned" : 0,
						"toolbars_unpinned_last_save" : 0,
						"tallnewobj" : 0,
						"boxanimatetime" : 200,
						"enablehscroll" : 1,
						"enablevscroll" : 1,
						"devicewidth" : 0.0,
						"description" : "",
						"digest" : "",
						"tags" : "",
						"style" : "",
						"subpatcher_template" : "",
						"assistshowspatchername" : 0,
						"boxes" : [ 							{
								"box" : 								{
									"comment" : "",
									"id" : "obj-32",
									"index" : 2,
									"maxclass" : "inlet",
									"numinlets" : 0,
									"numoutlets" : 1,
									"outlettype" : [ "int" ],
									"patching_rect" : [ 380.0, 0.0, 30.0, 30.0 ]
								}

							}
, 							{
								"box" : 								{
									"id" : "obj-16",
									"maxclass" : "newobj",
									"numinlets" : 1,
									"numoutlets" : 1,
									"outlettype" : [ "" ],
									"patching_rect" : [ 41.0, 375.168831168831275, 54.0, 22.0 ],
									"text" : "deferlow"
								}

							}
, 							{
								"box" : 								{
									"comment" : "",
									"id" : "obj-26",
									"index" : 1,
									"maxclass" : "inlet",
									"numinlets" : 0,
									"numoutlets" : 1,
									"outlettype" : [ "" ],
									"patching_rect" : [ 41.0, 55.0, 30.0, 30.0 ]
								}

							}
, 							{
								"box" : 								{
									"comment" : "",
									"id" : "obj-27",
									"index" : 1,
									"maxclass" : "outlet",
									"numinlets" : 1,
									"numoutlets" : 0,
									"patching_rect" : [ 41.0, 419.363636363636488, 30.0, 30.0 ]
								}

							}
, 							{
								"box" : 								{
									"id" : "obj-34",
									"maxclass" : "newobj",
									"numinlets" : 2,
									"numoutlets" : 1,
									"outlettype" : [ "int" ],
									"patching_rect" : [ 41.0, 171.924521023531042, 29.5, 22.0 ],
									"text" : "int"
								}

							}
, 							{
								"box" : 								{
									"id" : "obj-33",
									"maxclass" : "newobj",
									"numinlets" : 2,
									"numoutlets" : 1,
									"outlettype" : [ "" ],
									"patching_rect" : [ 41.0, 291.801862113179141, 53.0, 22.0 ],
									"text" : "pack 0 s"
								}

							}
, 							{
								"box" : 								{
									"id" : "obj-3",
									"maxclass" : "newobj",
									"numinlets" : 1,
									"numoutlets" : 2,
									"outlettype" : [ "int", "int" ],
									"patching_rect" : [ 41.0, 234.863191568355091, 53.0, 22.0 ],
									"text" : "t i i"
								}

							}
, 							{
								"box" : 								{
									"id" : "obj-31",
									"maxclass" : "message",
									"numinlets" : 2,
									"numoutlets" : 1,
									"outlettype" : [ "" ],
									"patching_rect" : [ 41.25, 320.271197385591108, 106.0, 22.0 ],
									"text" : "setvalue $1 set $2"
								}

							}
, 							{
								"box" : 								{
									"id" : "obj-29",
									"maxclass" : "newobj",
									"numinlets" : 1,
									"numoutlets" : 1,
									"outlettype" : [ "" ],
									"patching_rect" : [ 75.0, 265.332526840767059, 219.0, 22.0 ],
									"text" : "sprintf symout #1.polybuf.%ld"
								}

							}
, 							{
								"box" : 								{
									"id" : "obj-20",
									"maxclass" : "newobj",
									"numinlets" : 1,
									"numoutlets" : 2,
									"outlettype" : [ "bang", "" ],
									"patching_rect" : [ 41.0, 128.928999009199515, 116.0, 22.0 ],
									"text" : "t b s"
								}

							}
, 							{
								"box" : 								{
									"id" : "obj-19",
									"maxclass" : "newobj",
									"numinlets" : 2,
									"numoutlets" : 1,
									"outlettype" : [ "int" ],
									"patching_rect" : [ 346.0, 221.974025974026063, 29.5, 22.0 ],
									"text" : "int"
								}

							}
, 							{
								"box" : 								{
									"id" : "obj-18",
									"maxclass" : "newobj",
									"numinlets" : 1,
									"numoutlets" : 1,
									"outlettype" : [ "bang" ],
									"patching_rect" : [ 346.0, 191.974025974026063, 22.0, 22.0 ],
									"text" : "t b"
								}

							}
, 							{
								"box" : 								{
									"id" : "obj-15",
									"maxclass" : "message",
									"numinlets" : 2,
									"numoutlets" : 1,
									"outlettype" : [ "" ],
									"patching_rect" : [ 346.0, 320.271197385591108, 99.0, 22.0 ],
									"text" : "setvalue $1 clear"
								}

							}
, 							{
								"box" : 								{
									"id" : "obj-8",
									"maxclass" : "message",
									"numinlets" : 2,
									"numoutlets" : 1,
									"outlettype" : [ "" ],
									"patching_rect" : [ 165.0, 136.928999009199515, 113.0, 22.0 ],
									"text" : "set send $1 replace"
								}

							}
, 							{
								"box" : 								{
									"id" : "obj-5",
									"maxclass" : "newobj",
									"numinlets" : 1,
									"numoutlets" : 1,
									"outlettype" : [ "" ],
									"patching_rect" : [ 138.0, 171.924521023531042, 53.0, 22.0 ],
									"text" : "prepend"
								}

							}
, 							{
								"box" : 								{
									"id" : "obj-4",
									"maxclass" : "newobj",
									"numinlets" : 1,
									"numoutlets" : 2,
									"outlettype" : [ "", "bang" ],
									"patching_rect" : [ 138.0, 205.863191568355091, 180.0, 22.0 ],
									"saved_object_attributes" : 									{
										"embed" : 0
									}
,
									"text" : "polybuffer~ #1.polybuf"
								}

							}
, 							{
								"box" : 								{
									"id" : "obj-6",
									"maxclass" : "message",
									"numinlets" : 2,
									"numoutlets" : 1,
									"outlettype" : [ "" ],
									"patching_rect" : [ 501.0, 221.474025974026063, 109.0, 22.0 ],
									"text" : "set setvalue $1 set"
								}

							}
, 							{
								"box" : 								{
									"id" : "obj-25",
									"maxclass" : "newobj",
									"numinlets" : 1,
									"numoutlets" : 2,
									"outlettype" : [ "", "" ],
									"patcher" : 									{
										"fileversion" : 1,
										"appversion" : 										{
											"major" : 8,
											"minor" : 6,
											"revision" : 0,
											"architecture" : "x64",
											"modernui" : 1
										}
,
										"classnamespace" : "box",
										"rect" : [ 59.0, 104.0, 408.0, 381.0 ],
										"bglocked" : 0,
										"openinpresentation" : 0,
										"default_fontsize" : 12.0,
										"default_fontface" : 0,
										"default_fontname" : "Arial",
										"gridonopen" : 1,
										"gridsize" : [ 15.0, 15.0 ],
										"gridsnaponopen" : 1,
										"objectsnaponopen" : 1,
										"statusbarvisible" : 2,
										"toolbarvisible" : 1,
										"lefttoolbarpinned" : 0,
										"toptoolbarpinned" : 0,
										"righttoolbarpinned" : 0,
										"bottomtoolbarpinned" : 0,
										"toolbars_unpinned_last_save" : 0,
										"tallnewobj" : 0,
										"boxanimatetime" : 200,
										"enablehscroll" : 1,
										"enablevscroll" : 1,
										"devicewidth" : 0.0,
										"description" : "",
										"digest" : "",
										"tags" : "",
										"style" : "",
										"subpatcher_template" : "",
										"assistshowspatchername" : 0,
										"boxes" : [ 											{
												"box" : 												{
													"id" : "obj-2",
													"linecount" : 4,
													"maxclass" : "comment",
													"numinlets" : 1,
													"numoutlets" : 0,
													"patching_rect" : [ 158.0, 51.0, 152.0, 60.0 ],
													"text" : "If a single symbol, it is a buffer from the data folder. If a full path, it must be loaded here."
												}

											}
, 											{
												"box" : 												{
													"id" : "obj-16",
													"maxclass" : "newobj",
													"numinlets" : 2,
													"numoutlets" : 1,
													"outlettype" : [ "int" ],
													"patching_rect" : [ 131.0, 235.0, 33.0, 22.0 ],
													"text" : "+ 1"
												}

											}
, 											{
												"box" : 												{
													"id" : "obj-15",
													"maxclass" : "newobj",
													"numinlets" : 2,
													"numoutlets" : 2,
													"outlettype" : [ "", "" ],
													"patching_rect" : [ 131.0, 259.0, 100.0, 22.0 ],
													"text" : "gate 2 1"
												}

											}
, 											{
												"box" : 												{
													"id" : "obj-14",
													"maxclass" : "newobj",
													"numinlets" : 1,
													"numoutlets" : 2,
													"outlettype" : [ "", "" ],
													"patching_rect" : [ 50.0, 100.0, 100.0, 22.0 ],
													"text" : "t s s"
												}

											}
, 											{
												"box" : 												{
													"id" : "obj-13",
													"maxclass" : "newobj",
													"numinlets" : 2,
													"numoutlets" : 1,
													"outlettype" : [ "int" ],
													"patching_rect" : [ 131.0, 205.0, 33.0, 22.0 ],
													"text" : "== 1"
												}

											}
, 											{
												"box" : 												{
													"id" : "obj-9",
													"maxclass" : "newobj",
													"numinlets" : 2,
													"numoutlets" : 2,
													"outlettype" : [ "", "" ],
													"patching_rect" : [ 131.0, 177.0, 37.0, 22.0 ],
													"text" : "zl len"
												}

											}
, 											{
												"box" : 												{
													"id" : "obj-3",
													"linecount" : 2,
													"maxclass" : "newobj",
													"numinlets" : 1,
													"numoutlets" : 1,
													"outlettype" : [ "" ],
													"patching_rect" : [ 131.0, 131.0, 100.0, 35.0 ],
													"text" : "fromsymbol @separator /"
												}

											}
, 											{
												"box" : 												{
													"comment" : "",
													"id" : "obj-22",
													"index" : 1,
													"maxclass" : "inlet",
													"numinlets" : 0,
													"numoutlets" : 1,
													"outlettype" : [ "" ],
													"patching_rect" : [ 50.0, 40.0, 30.0, 30.0 ]
												}

											}
, 											{
												"box" : 												{
													"comment" : "",
													"id" : "obj-23",
													"index" : 1,
													"maxclass" : "outlet",
													"numinlets" : 1,
													"numoutlets" : 0,
													"patching_rect" : [ 131.0, 292.0, 30.0, 30.0 ]
												}

											}
, 											{
												"box" : 												{
													"comment" : "",
													"id" : "obj-24",
													"index" : 2,
													"maxclass" : "outlet",
													"numinlets" : 1,
													"numoutlets" : 0,
													"patching_rect" : [ 212.0, 292.0, 30.0, 30.0 ]
												}

											}
 ],
										"lines" : [ 											{
												"patchline" : 												{
													"destination" : [ "obj-16", 0 ],
													"source" : [ "obj-13", 0 ]
												}

											}
, 											{
												"patchline" : 												{
													"destination" : [ "obj-15", 1 ],
													"source" : [ "obj-14", 0 ]
												}

											}
, 											{
												"patchline" : 												{
													"destination" : [ "obj-3", 0 ],
													"source" : [ "obj-14", 1 ]
												}

											}
, 											{
												"patchline" : 												{
													"destination" : [ "obj-23", 0 ],
													"source" : [ "obj-15", 0 ]
												}

											}
, 											{
												"patchline" : 												{
													"destination" : [ "obj-24", 0 ],
													"source" : [ "obj-15", 1 ]
												}

											}
, 											{
												"patchline" : 												{
													"destination" : [ "obj-15", 0 ],
													"source" : [ "obj-16", 0 ]
												}

											}
, 											{
												"patchline" : 												{
													"destination" : [ "obj-14", 0 ],
													"source" : [ "obj-22", 0 ]
												}

											}
, 											{
												"patchline" : 												{
													"destination" : [ "obj-9", 0 ],
													"source" : [ "obj-3", 0 ]
												}

											}
, 											{
												"patchline" : 												{
													"destination" : [ "obj-13", 0 ],
													"source" : [ "obj-9", 0 ]
												}

											}
 ]
									}
,
									"patching_rect" : [ 41.0, 93.459663736787491, 324.0, 22.0 ],
									"saved_object_attributes" : 									{
										"description" : "",
										"digest" : "",
										"globalpatchername" : "",
										"tags" : ""
									}
,
									"text" : "p \"absolute path or from IR folder?\""
								}

							}
, 							{
								"box" : 								{
									"id" : "obj-35",
									"maxclass" : "newobj",
									"numinlets" : 1,
									"numoutlets" : 1,
									"outlettype" : [ "" ],
									"patcher" : 									{
										"fileversion" : 1,
										"appversion" : 										{
											"major" : 8,
											"minor" : 6,
											"revision" : 0,
											"architecture" : "x64",
											"modernui" : 1
										}
,
										"classnamespace" : "box",
										"rect" : [ 531.0, 243.0, 729.0, 520.0 ],
										"bglocked" : 0,
										"openinpresentation" : 0,
										"default_fontsize" : 12.0,
										"default_fontface" : 0,
										"default_fontname" : "Arial",
										"gridonopen" : 1,
										"gridsize" : [ 15.0, 15.0 ],
										"gridsnaponopen" : 1,
										"objectsnaponopen" : 1,
										"statusbarvisible" : 2,
										"toolbarvisible" : 1,
										"lefttoolbarpinned" : 0,
										"toptoolbarpinned" : 0,
										"righttoolbarpinned" : 0,
										"bottomtoolbarpinned" : 0,
										"toolbars_unpinned_last_save" : 0,
										"tallnewobj" : 0,
										"boxanimatetime" : 200,
										"enablehscroll" : 1,
										"enablevscroll" : 1,
										"devicewidth" : 0.0,
										"description" : "",
										"digest" : "",
										"tags" : "",
										"style" : "",
										"subpatcher_template" : "",
										"assistshowspatchername" : 0,
										"boxes" : [ 											{
												"box" : 												{
													"id" : "obj-6",
													"maxclass" : "newobj",
													"numinlets" : 2,
													"numoutlets" : 2,
													"outlettype" : [ "", "" ],
													"patching_rect" : [ 150.666666666666629, 141.571428571428555, 66.0, 22.0 ],
													"text" : "route none"
												}

											}
, 											{
												"box" : 												{
													"id" : "obj-5",
													"maxclass" : "newobj",
													"numinlets" : 1,
													"numoutlets" : 1,
													"outlettype" : [ "" ],
													"patcher" : 													{
														"fileversion" : 1,
														"appversion" : 														{
															"major" : 8,
															"minor" : 6,
															"revision" : 0,
															"architecture" : "x64",
															"modernui" : 1
														}
,
														"classnamespace" : "box",
														"rect" : [ 0.0, 0.0, 640.0, 480.0 ],
														"bglocked" : 0,
														"openinpresentation" : 0,
														"default_fontsize" : 12.0,
														"default_fontface" : 0,
														"default_fontname" : "Arial",
														"gridonopen" : 1,
														"gridsize" : [ 15.0, 15.0 ],
														"gridsnaponopen" : 1,
														"objectsnaponopen" : 1,
														"statusbarvisible" : 2,
														"toolbarvisible" : 1,
														"lefttoolbarpinned" : 0,
														"toptoolbarpinned" : 0,
														"righttoolbarpinned" : 0,
														"bottomtoolbarpinned" : 0,
														"toolbars_unpinned_last_save" : 0,
														"tallnewobj" : 0,
														"boxanimatetime" : 200,
														"enablehscroll" : 1,
														"enablevscroll" : 1,
														"devicewidth" : 0.0,
														"description" : "",
														"digest" : "",
														"tags" : "",
														"style" : "",
														"subpatcher_template" : "",
														"assistshowspatchername" : 0,
														"boxes" : [ 															{
																"box" : 																{
																	"id" : "obj-32",
																	"maxclass" : "newobj",
																	"numinlets" : 2,
																	"numoutlets" : 2,
																	"outlettype" : [ "", "" ],
																	"patching_rect" : [ 50.0, 100.0, 77.0, 22.0 ],
																	"text" : "route symbol"
																}

															}
, 															{
																"box" : 																{
																	"comment" : "",
																	"id" : "obj-1",
																	"index" : 1,
																	"maxclass" : "inlet",
																	"numinlets" : 0,
																	"numoutlets" : 1,
																	"outlettype" : [ "" ],
																	"patching_rect" : [ 50.0, 40.0, 30.0, 30.0 ]
																}

															}
, 															{
																"box" : 																{
																	"comment" : "",
																	"id" : "obj-2",
																	"index" : 1,
																	"maxclass" : "outlet",
																	"numinlets" : 1,
																	"numoutlets" : 0,
																	"patching_rect" : [ 44.0, 182.0, 30.0, 30.0 ]
																}

															}
 ],
														"lines" : [ 															{
																"patchline" : 																{
																	"destination" : [ "obj-32", 0 ],
																	"source" : [ "obj-1", 0 ]
																}

															}
, 															{
																"patchline" : 																{
																	"destination" : [ "obj-2", 0 ],
																	"source" : [ "obj-32", 1 ]
																}

															}
, 															{
																"patchline" : 																{
																	"destination" : [ "obj-2", 0 ],
																	"source" : [ "obj-32", 0 ]
																}

															}
 ]
													}
,
													"patching_rect" : [ 50.0, 282.0, 29.0, 22.0 ],
													"saved_object_attributes" : 													{
														"description" : "",
														"digest" : "",
														"globalpatchername" : "",
														"tags" : ""
													}
,
													"text" : "p rs"
												}

											}
, 											{
												"box" : 												{
													"bubble" : 1,
													"bubblepoint" : 0.0,
													"bubbleside" : 0,
													"id" : "obj-4",
													"linecount" : 5,
													"maxclass" : "comment",
													"numinlets" : 1,
													"numoutlets" : 0,
													"patching_rect" : [ 130.666666666666629, 268.0, 189.0, 93.0 ],
													"text" : "Buffers are loaded by the device, to avoid duplicates. This coll contains the mapping between filename and corresponding buffer name."
												}

											}
, 											{
												"box" : 												{
													"id" : "obj-28",
													"maxclass" : "newobj",
													"numinlets" : 1,
													"numoutlets" : 1,
													"outlettype" : [ "" ],
													"patching_rect" : [ 50.0, 117.571428571428555, 94.0, 22.0 ],
													"text" : "prepend symbol"
												}

											}
, 											{
												"box" : 												{
													"id" : "obj-27",
													"maxclass" : "newobj",
													"numinlets" : 0,
													"numoutlets" : 1,
													"outlettype" : [ "" ],
													"patching_rect" : [ 150.666666666666629, 111.0, 117.0, 22.0 ],
													"text" : "r #0.devicename"
												}

											}
, 											{
												"box" : 												{
													"id" : "obj-26",
													"maxclass" : "newobj",
													"numinlets" : 1,
													"numoutlets" : 4,
													"outlettype" : [ "", "", "", "" ],
													"patching_rect" : [ 50.0, 252.0, 50.5, 22.0 ],
													"saved_object_attributes" : 													{
														"embed" : 0,
														"precision" : 6
													}
,
													"text" : "coll"
												}

											}
, 											{
												"box" : 												{
													"id" : "obj-25",
													"maxclass" : "newobj",
													"numinlets" : 1,
													"numoutlets" : 1,
													"outlettype" : [ "" ],
													"patching_rect" : [ 69.0, 220.0, 81.0, 22.0 ],
													"text" : "prepend refer"
												}

											}
, 											{
												"box" : 												{
													"id" : "obj-20",
													"maxclass" : "newobj",
													"numinlets" : 2,
													"numoutlets" : 2,
													"outlettype" : [ "", "" ],
													"patching_rect" : [ 150.666666666666629, 184.85714285714289, 226.0, 22.0 ],
													"text" : "combine path /SoundBuffers/shortnames"
												}

											}
, 											{
												"box" : 												{
													"comment" : "",
													"id" : "obj-33",
													"index" : 1,
													"maxclass" : "inlet",
													"numinlets" : 0,
													"numoutlets" : 1,
													"outlettype" : [ "" ],
													"patching_rect" : [ 50.0, 63.0, 30.0, 30.0 ]
												}

											}
, 											{
												"box" : 												{
													"comment" : "",
													"id" : "obj-34",
													"index" : 1,
													"maxclass" : "outlet",
													"numinlets" : 1,
													"numoutlets" : 0,
													"patching_rect" : [ 50.0, 318.0, 30.0, 30.0 ]
												}

											}
 ],
										"lines" : [ 											{
												"patchline" : 												{
													"destination" : [ "obj-25", 0 ],
													"source" : [ "obj-20", 0 ]
												}

											}
, 											{
												"patchline" : 												{
													"destination" : [ "obj-26", 0 ],
													"source" : [ "obj-25", 0 ]
												}

											}
, 											{
												"patchline" : 												{
													"destination" : [ "obj-5", 0 ],
													"source" : [ "obj-26", 0 ]
												}

											}
, 											{
												"patchline" : 												{
													"destination" : [ "obj-6", 0 ],
													"source" : [ "obj-27", 0 ]
												}

											}
, 											{
												"patchline" : 												{
													"destination" : [ "obj-26", 0 ],
													"source" : [ "obj-28", 0 ]
												}

											}
, 											{
												"patchline" : 												{
													"destination" : [ "obj-28", 0 ],
													"source" : [ "obj-33", 0 ]
												}

											}
, 											{
												"patchline" : 												{
													"destination" : [ "obj-34", 0 ],
													"source" : [ "obj-5", 0 ]
												}

											}
, 											{
												"patchline" : 												{
													"destination" : [ "obj-20", 0 ],
													"source" : [ "obj-6", 1 ]
												}

											}
 ],
										"styles" : [ 											{
												"name" : "AudioStatus_Menu",
												"default" : 												{
													"bgfillcolor" : 													{
														"angle" : 270.0,
														"autogradient" : 0,
														"color" : [ 0.294118, 0.313726, 0.337255, 1 ],
														"color1" : [ 0.454902, 0.462745, 0.482353, 0.0 ],
														"color2" : [ 0.290196, 0.309804, 0.301961, 1.0 ],
														"proportion" : 0.39,
														"type" : "color"
													}

												}
,
												"parentstyle" : "",
												"multi" : 0
											}
, 											{
												"name" : "Jamoma_highlighted_orange",
												"default" : 												{
													"accentcolor" : [ 1.0, 0.5, 0.0, 1.0 ]
												}
,
												"parentstyle" : "",
												"multi" : 0
											}
, 											{
												"name" : "ksliderWhite",
												"default" : 												{
													"color" : [ 1, 1, 1, 1 ]
												}
,
												"parentstyle" : "",
												"multi" : 0
											}
, 											{
												"name" : "newobjBlue-1",
												"default" : 												{
													"accentcolor" : [ 0.317647, 0.654902, 0.976471, 1 ]
												}
,
												"parentstyle" : "",
												"multi" : 0
											}
, 											{
												"name" : "newobjGreen-1",
												"default" : 												{
													"accentcolor" : [ 0, 0.533333, 0.168627, 1 ]
												}
,
												"parentstyle" : "",
												"multi" : 0
											}
, 											{
												"name" : "numberGold-1",
												"default" : 												{
													"accentcolor" : [ 0.764706, 0.592157, 0.101961, 1 ]
												}
,
												"parentstyle" : "",
												"multi" : 0
											}
, 											{
												"name" : "tap-dark",
												"default" : 												{
													"editing_bgcolor" : [ 0.133333, 0.133333, 0.133333, 1.0 ],
													"fontname" : [ "Ableton Sans Light Regular" ],
													"locked_bgcolor" : [ 0.133333, 0.133333, 0.133333, 1.0 ],
													"textcolor" : [ 0.847058823529412, 0.847058823529412, 0.847058823529412, 1.0 ]
												}
,
												"parentstyle" : "",
												"multi" : 0
											}
 ]
									}
,
									"patching_rect" : [ 461.0, 191.974025974026063, 142.0, 22.0 ],
									"saved_object_attributes" : 									{
										"description" : "",
										"digest" : "",
										"globalpatchername" : "",
										"tags" : ""
									}
,
									"text" : "p filename-to-buffername"
								}

							}
, 							{
								"box" : 								{
									"id" : "obj-7",
									"maxclass" : "newobj",
									"numinlets" : 2,
									"numoutlets" : 2,
									"outlettype" : [ "", "" ],
									"patching_rect" : [ 346.0, 156.924521023531042, 134.0, 22.0 ],
									"text" : "route none"
								}

							}
, 							{
								"box" : 								{
									"id" : "obj-9",
									"maxclass" : "newobj",
									"numinlets" : 1,
									"numoutlets" : 1,
									"outlettype" : [ "" ],
									"patching_rect" : [ 461.0, 320.271197385591108, 53.0, 22.0 ],
									"text" : "prepend"
								}

							}
 ],
						"lines" : [ 							{
								"patchline" : 								{
									"destination" : [ "obj-16", 0 ],
									"source" : [ "obj-15", 0 ]
								}

							}
, 							{
								"patchline" : 								{
									"destination" : [ "obj-27", 0 ],
									"source" : [ "obj-16", 0 ]
								}

							}
, 							{
								"patchline" : 								{
									"destination" : [ "obj-19", 0 ],
									"source" : [ "obj-18", 0 ]
								}

							}
, 							{
								"patchline" : 								{
									"destination" : [ "obj-15", 0 ],
									"source" : [ "obj-19", 0 ]
								}

							}
, 							{
								"patchline" : 								{
									"destination" : [ "obj-34", 0 ],
									"source" : [ "obj-20", 0 ]
								}

							}
, 							{
								"patchline" : 								{
									"destination" : [ "obj-5", 0 ],
									"source" : [ "obj-20", 1 ]
								}

							}
, 							{
								"patchline" : 								{
									"destination" : [ "obj-20", 0 ],
									"source" : [ "obj-25", 0 ]
								}

							}
, 							{
								"patchline" : 								{
									"destination" : [ "obj-7", 0 ],
									"source" : [ "obj-25", 1 ]
								}

							}
, 							{
								"patchline" : 								{
									"destination" : [ "obj-25", 0 ],
									"source" : [ "obj-26", 0 ]
								}

							}
, 							{
								"patchline" : 								{
									"destination" : [ "obj-33", 1 ],
									"source" : [ "obj-29", 0 ]
								}

							}
, 							{
								"patchline" : 								{
									"destination" : [ "obj-29", 0 ],
									"source" : [ "obj-3", 1 ]
								}

							}
, 							{
								"patchline" : 								{
									"destination" : [ "obj-33", 0 ],
									"source" : [ "obj-3", 0 ]
								}

							}
, 							{
								"patchline" : 								{
									"destination" : [ "obj-16", 0 ],
									"source" : [ "obj-31", 0 ]
								}

							}
, 							{
								"patchline" : 								{
									"destination" : [ "obj-19", 1 ],
									"order" : 1,
									"source" : [ "obj-32", 0 ]
								}

							}
, 							{
								"patchline" : 								{
									"destination" : [ "obj-34", 1 ],
									"order" : 3,
									"source" : [ "obj-32", 0 ]
								}

							}
, 							{
								"patchline" : 								{
									"destination" : [ "obj-6", 0 ],
									"order" : 0,
									"source" : [ "obj-32", 0 ]
								}

							}
, 							{
								"patchline" : 								{
									"destination" : [ "obj-8", 0 ],
									"order" : 2,
									"source" : [ "obj-32", 0 ]
								}

							}
, 							{
								"patchline" : 								{
									"destination" : [ "obj-31", 0 ],
									"source" : [ "obj-33", 0 ]
								}

							}
, 							{
								"patchline" : 								{
									"destination" : [ "obj-3", 0 ],
									"source" : [ "obj-34", 0 ]
								}

							}
, 							{
								"patchline" : 								{
									"destination" : [ "obj-9", 0 ],
									"source" : [ "obj-35", 0 ]
								}

							}
, 							{
								"patchline" : 								{
									"destination" : [ "obj-4", 0 ],
									"source" : [ "obj-5", 0 ]
								}

							}
, 							{
								"patchline" : 								{
									"destination" : [ "obj-9", 0 ],
									"source" : [ "obj-6", 0 ]
								}

							}
, 							{
								"patchline" : 								{
									"destination" : [ "obj-18", 0 ],
									"source" : [ "obj-7", 0 ]
								}

							}
, 							{
								"patchline" : 								{
									"destination" : [ "obj-35", 0 ],
									"source" : [ "obj-7", 1 ]
								}

							}
, 							{
								"patchline" : 								{
									"destination" : [ "obj-5", 0 ],
									"source" : [ "obj-8", 0 ]
								}

							}
, 							{
								"patchline" : 								{
									"destination" : [ "obj-16", 0 ],
									"source" : [ "obj-9", 0 ]
								}

							}
 ]
					}
,
					"patching_rect" : [ 413.0, 319.082343999999978, 112.0, 22.0 ],
					"saved_object_attributes" : 					{
						"description" : "",
						"digest" : "",
						"globalpatchername" : "",
						"tags" : ""
					}
,
					"text" : "p format"
				}

			}
, 			{
				"box" : 				{
					"color" : [ 0.407843137254902, 0.529411764705882, 0.36078431372549, 1.0 ],
					"id" : "obj-6",
					"linecount" : 3,
					"maxclass" : "newobj",
					"numinlets" : 2,
					"numoutlets" : 3,
					"outlettype" : [ "", "int", "" ],
					"patching_rect" : [ 413.0, 234.5, 206.0, 49.0 ],
					"text" : "mvc.parameter #1 soundbuffer @description \"Sound sample\" @default none @unit none"
				}

			}
, 			{
				"box" : 				{
					"comment" : "",
					"id" : "obj-19",
					"index" : 2,
					"maxclass" : "inlet",
					"numinlets" : 0,
					"numoutlets" : 1,
					"outlettype" : [ "" ],
					"patching_rect" : [ 942.5, 47.0, 30.0, 30.0 ]
				}

			}
, 			{
				"box" : 				{
					"comment" : "to mc.groove~",
					"id" : "obj-20",
					"index" : 3,
					"maxclass" : "outlet",
					"numinlets" : 1,
					"numoutlets" : 0,
					"patching_rect" : [ 176.0, 641.500000000000114, 30.0, 30.0 ]
				}

			}
, 			{
				"box" : 				{
					"id" : "obj-30",
					"maxclass" : "newobj",
					"numinlets" : 3,
					"numoutlets" : 3,
					"outlettype" : [ "", "", "" ],
					"patching_rect" : [ 68.5, 68.0, 320.0, 22.0 ],
					"text" : "route VU play"
				}

			}
 ],
		"lines" : [ 			{
				"patchline" : 				{
					"destination" : [ "obj-3", 0 ],
					"source" : [ "obj-11", 0 ]
				}

			}
, 			{
				"patchline" : 				{
					"destination" : [ "obj-43", 0 ],
					"source" : [ "obj-12", 0 ]
				}

			}
, 			{
				"patchline" : 				{
					"destination" : [ "obj-45", 1 ],
					"source" : [ "obj-12", 1 ]
				}

			}
, 			{
				"patchline" : 				{
					"destination" : [ "obj-20", 0 ],
					"source" : [ "obj-13", 0 ]
				}

			}
, 			{
				"patchline" : 				{
					"destination" : [ "obj-15", 0 ],
					"midpoints" : [ 952.0, 116.0, 1243.0, 116.0, 1243.0, 581.0, 952.0, 581.0 ],
					"order" : 0,
					"source" : [ "obj-14", 1 ]
				}

			}
, 			{
				"patchline" : 				{
					"destination" : [ "obj-8", 0 ],
					"midpoints" : [ 566.0, 193.0, 73.5, 193.0 ],
					"source" : [ "obj-14", 0 ]
				}

			}
, 			{
				"patchline" : 				{
					"destination" : [ "obj-9", 0 ],
					"order" : 1,
					"source" : [ "obj-14", 1 ]
				}

			}
, 			{
				"patchline" : 				{
					"destination" : [ "obj-56", 1 ],
					"source" : [ "obj-16", 1 ]
				}

			}
, 			{
				"patchline" : 				{
					"destination" : [ "obj-57", 0 ],
					"source" : [ "obj-16", 0 ]
				}

			}
, 			{
				"patchline" : 				{
					"destination" : [ "obj-46", 0 ],
					"source" : [ "obj-18", 0 ]
				}

			}
, 			{
				"patchline" : 				{
					"destination" : [ "obj-48", 1 ],
					"source" : [ "obj-18", 1 ]
				}

			}
, 			{
				"patchline" : 				{
					"destination" : [ "obj-14", 1 ],
					"source" : [ "obj-19", 0 ]
				}

			}
, 			{
				"patchline" : 				{
					"destination" : [ "obj-14", 1 ],
					"source" : [ "obj-2", 1 ]
				}

			}
, 			{
				"patchline" : 				{
					"destination" : [ "obj-33", 0 ],
					"source" : [ "obj-21", 0 ]
				}

			}
, 			{
				"patchline" : 				{
					"destination" : [ "obj-28", 1 ],
					"source" : [ "obj-22", 1 ]
				}

			}
, 			{
				"patchline" : 				{
					"destination" : [ "obj-5", 0 ],
					"source" : [ "obj-22", 0 ]
				}

			}
, 			{
				"patchline" : 				{
					"destination" : [ "obj-21", 0 ],
					"source" : [ "obj-24", 0 ]
				}

			}
, 			{
				"patchline" : 				{
					"destination" : [ "obj-26", 0 ],
					"source" : [ "obj-25", 0 ]
				}

			}
, 			{
				"patchline" : 				{
					"destination" : [ "obj-27", 0 ],
					"source" : [ "obj-26", 0 ]
				}

			}
, 			{
				"patchline" : 				{
					"destination" : [ "obj-13", 0 ],
					"midpoints" : [ 1050.0, 518.75, 185.5, 518.75 ],
					"source" : [ "obj-27", 0 ]
				}

			}
, 			{
				"patchline" : 				{
					"destination" : [ "obj-13", 0 ],
					"midpoints" : [ 850.0, 514.75, 185.5, 514.75 ],
					"source" : [ "obj-28", 0 ]
				}

			}
, 			{
				"patchline" : 				{
					"destination" : [ "obj-25", 0 ],
					"source" : [ "obj-29", 0 ]
				}

			}
, 			{
				"patchline" : 				{
					"destination" : [ "obj-27", 1 ],
					"source" : [ "obj-29", 1 ]
				}

			}
, 			{
				"patchline" : 				{
					"destination" : [ "obj-17", 0 ],
					"source" : [ "obj-3", 0 ]
				}

			}
, 			{
				"patchline" : 				{
					"destination" : [ "obj-50", 0 ],
					"source" : [ "obj-30", 0 ]
				}

			}
, 			{
				"patchline" : 				{
					"destination" : [ "obj-52", 0 ],
					"midpoints" : [ 228.5, 111.208827893175055, 636.0, 111.208827893175055 ],
					"source" : [ "obj-30", 1 ]
				}

			}
, 			{
				"patchline" : 				{
					"destination" : [ "obj-11", 0 ],
					"source" : [ "obj-31", 0 ]
				}

			}
, 			{
				"patchline" : 				{
					"destination" : [ "obj-3", 1 ],
					"source" : [ "obj-31", 1 ]
				}

			}
, 			{
				"patchline" : 				{
					"destination" : [ "obj-13", 0 ],
					"midpoints" : [ 636.0, 351.79117199999996, 185.5, 351.79117199999996 ],
					"source" : [ "obj-34", 0 ]
				}

			}
, 			{
				"patchline" : 				{
					"destination" : [ "obj-28", 0 ],
					"source" : [ "obj-37", 0 ]
				}

			}
, 			{
				"patchline" : 				{
					"destination" : [ "obj-30", 0 ],
					"source" : [ "obj-38", 0 ]
				}

			}
, 			{
				"patchline" : 				{
					"destination" : [ "obj-13", 0 ],
					"midpoints" : [ 422.5, 346.5, 185.5, 346.5 ],
					"source" : [ "obj-39", 0 ]
				}

			}
, 			{
				"patchline" : 				{
					"destination" : [ "obj-34", 1 ],
					"source" : [ "obj-4", 1 ]
				}

			}
, 			{
				"patchline" : 				{
					"destination" : [ "obj-40", 0 ],
					"source" : [ "obj-4", 0 ]
				}

			}
, 			{
				"patchline" : 				{
					"destination" : [ "obj-34", 0 ],
					"source" : [ "obj-40", 0 ]
				}

			}
, 			{
				"patchline" : 				{
					"destination" : [ "obj-44", 0 ],
					"source" : [ "obj-43", 0 ]
				}

			}
, 			{
				"patchline" : 				{
					"destination" : [ "obj-45", 0 ],
					"source" : [ "obj-44", 0 ]
				}

			}
, 			{
				"patchline" : 				{
					"destination" : [ "obj-13", 0 ],
					"midpoints" : [ 452.0, 506.75, 185.5, 506.75 ],
					"source" : [ "obj-45", 0 ]
				}

			}
, 			{
				"patchline" : 				{
					"destination" : [ "obj-47", 0 ],
					"source" : [ "obj-46", 0 ]
				}

			}
, 			{
				"patchline" : 				{
					"destination" : [ "obj-48", 0 ],
					"source" : [ "obj-47", 0 ]
				}

			}
, 			{
				"patchline" : 				{
					"destination" : [ "obj-13", 0 ],
					"midpoints" : [ 651.0, 510.75, 185.5, 510.75 ],
					"source" : [ "obj-48", 0 ]
				}

			}
, 			{
				"patchline" : 				{
					"destination" : [ "obj-37", 0 ],
					"source" : [ "obj-5", 0 ]
				}

			}
, 			{
				"patchline" : 				{
					"destination" : [ "obj-4", 0 ],
					"source" : [ "obj-52", 0 ]
				}

			}
, 			{
				"patchline" : 				{
					"destination" : [ "obj-61", 0 ],
					"source" : [ "obj-52", 1 ]
				}

			}
, 			{
				"patchline" : 				{
					"destination" : [ "obj-56", 0 ],
					"source" : [ "obj-55", 0 ]
				}

			}
, 			{
				"patchline" : 				{
					"destination" : [ "obj-1", 0 ],
					"source" : [ "obj-56", 1 ]
				}

			}
, 			{
				"patchline" : 				{
					"destination" : [ "obj-13", 0 ],
					"midpoints" : [ 208.5, 502.75, 185.5, 502.75 ],
					"source" : [ "obj-56", 0 ]
				}

			}
, 			{
				"patchline" : 				{
					"destination" : [ "obj-55", 0 ],
					"source" : [ "obj-57", 0 ]
				}

			}
, 			{
				"patchline" : 				{
					"destination" : [ "obj-39", 1 ],
					"source" : [ "obj-6", 1 ]
				}

			}
, 			{
				"patchline" : 				{
					"destination" : [ "obj-39", 0 ],
					"source" : [ "obj-6", 0 ]
				}

			}
, 			{
				"patchline" : 				{
					"destination" : [ "obj-62", 0 ],
					"source" : [ "obj-61", 0 ]
				}

			}
, 			{
				"patchline" : 				{
					"destination" : [ "obj-34", 1 ],
					"source" : [ "obj-62", 1 ]
				}

			}
, 			{
				"patchline" : 				{
					"destination" : [ "obj-40", 0 ],
					"source" : [ "obj-62", 0 ]
				}

			}
, 			{
				"patchline" : 				{
					"destination" : [ "obj-21", 1 ],
					"source" : [ "obj-7", 1 ]
				}

			}
, 			{
				"patchline" : 				{
					"destination" : [ "obj-24", 0 ],
					"source" : [ "obj-7", 0 ]
				}

			}
, 			{
				"patchline" : 				{
					"destination" : [ "obj-12", 1 ],
					"order" : 4,
					"source" : [ "obj-9", 0 ]
				}

			}
, 			{
				"patchline" : 				{
					"destination" : [ "obj-14", 1 ],
					"source" : [ "obj-9", 1 ]
				}

			}
, 			{
				"patchline" : 				{
					"destination" : [ "obj-18", 1 ],
					"order" : 3,
					"source" : [ "obj-9", 0 ]
				}

			}
, 			{
				"patchline" : 				{
					"destination" : [ "obj-22", 1 ],
					"order" : 1,
					"source" : [ "obj-9", 0 ]
				}

			}
, 			{
				"patchline" : 				{
					"destination" : [ "obj-29", 1 ],
					"order" : 0,
					"source" : [ "obj-9", 0 ]
				}

			}
, 			{
				"patchline" : 				{
					"destination" : [ "obj-31", 1 ],
					"order" : 8,
					"source" : [ "obj-9", 0 ]
				}

			}
, 			{
				"patchline" : 				{
					"destination" : [ "obj-35", 0 ],
					"order" : 7,
					"source" : [ "obj-9", 0 ]
				}

			}
, 			{
				"patchline" : 				{
					"destination" : [ "obj-4", 1 ],
					"order" : 2,
					"source" : [ "obj-9", 0 ]
				}

			}
, 			{
				"patchline" : 				{
					"destination" : [ "obj-6", 1 ],
					"order" : 5,
					"source" : [ "obj-9", 0 ]
				}

			}
, 			{
				"patchline" : 				{
					"destination" : [ "obj-7", 1 ],
					"order" : 6,
					"source" : [ "obj-9", 0 ]
				}

			}
 ]
	}

}
