{
	"patcher" : 	{
		"fileversion" : 1,
		"appversion" : 		{
			"major" : 8,
			"minor" : 2,
			"revision" : 2,
			"architecture" : "x64",
			"modernui" : 1
		}
,
		"classnamespace" : "box",
		"rect" : [ 873.0, 222.0, 770.0, 677.0 ],
		"bglocked" : 0,
		"openinpresentation" : 0,
		"default_fontsize" : 12.0,
		"default_fontface" : 0,
		"default_fontname" : "Arial",
		"gridonopen" : 1,
		"gridsize" : [ 15.0, 15.0 ],
		"gridsnaponopen" : 1,
		"objectsnaponopen" : 1,
		"statusbarvisible" : 2,
		"toolbarvisible" : 1,
		"lefttoolbarpinned" : 0,
		"toptoolbarpinned" : 0,
		"righttoolbarpinned" : 0,
		"bottomtoolbarpinned" : 0,
		"toolbars_unpinned_last_save" : 0,
		"tallnewobj" : 0,
		"boxanimatetime" : 200,
		"enablehscroll" : 1,
		"enablevscroll" : 1,
		"devicewidth" : 0.0,
		"description" : "",
		"digest" : "",
		"tags" : "",
		"style" : "",
		"subpatcher_template" : "",
		"assistshowspatchername" : 0,
		"boxes" : [ 			{
				"box" : 				{
					"id" : "obj-4",
					"maxclass" : "message",
					"numinlets" : 2,
					"numoutlets" : 1,
					"outlettype" : [ "" ],
					"patching_rect" : [ 53.0, 111.0, 95.0, 22.0 ]
				}

			}
, 			{
				"box" : 				{
					"comment" : "model dumpout",
					"id" : "obj-20",
					"index" : 2,
					"maxclass" : "outlet",
					"numinlets" : 1,
					"numoutlets" : 0,
					"patching_rect" : [ 682.0, 553.0, 30.0, 30.0 ]
				}

			}
, 			{
				"box" : 				{
					"comment" : "data output",
					"id" : "obj-19",
					"index" : 1,
					"maxclass" : "outlet",
					"numinlets" : 1,
					"numoutlets" : 0,
					"patching_rect" : [ 53.0, 553.0, 30.0, 30.0 ]
				}

			}
, 			{
				"box" : 				{
					"id" : "obj-18",
					"maxclass" : "newobj",
					"numinlets" : 1,
					"numoutlets" : 1,
					"outlettype" : [ "" ],
					"patching_rect" : [ 167.0, 226.694581280788213, 94.0, 22.0 ],
					"text" : "prepend symbol"
				}

			}
, 			{
				"box" : 				{
					"id" : "obj-17",
					"maxclass" : "message",
					"numinlets" : 2,
					"numoutlets" : 1,
					"outlettype" : [ "" ],
					"patching_rect" : [ 270.5, 226.694581280788213, 178.0, 22.0 ],
					"text" : "peaknotch"
				}

			}
, 			{
				"box" : 				{
					"id" : "obj-15",
					"items" : [ "lowpass", ",", "highpass", ",", "bandpass", ",", "bandstop", ",", "peaknotch", ",", "lowshelf", ",", "highshelf", ",", "resonant", ",", "allpass" ],
					"maxclass" : "umenu",
					"numinlets" : 1,
					"numoutlets" : 3,
					"outlettype" : [ "int", "", "" ],
					"parameter_enable" : 0,
					"patching_rect" : [ 167.0, 251.926108374384285, 100.0, 22.0 ]
				}

			}
, 			{
				"box" : 				{
					"format" : 6,
					"id" : "obj-13",
					"maxclass" : "flonum",
					"numinlets" : 1,
					"numoutlets" : 2,
					"outlettype" : [ "", "bang" ],
					"parameter_enable" : 0,
					"patching_rect" : [ 167.0, 532.315270935960712, 50.0, 22.0 ]
				}

			}
, 			{
				"box" : 				{
					"format" : 6,
					"id" : "obj-12",
					"maxclass" : "flonum",
					"numinlets" : 1,
					"numoutlets" : 2,
					"outlettype" : [ "", "bang" ],
					"parameter_enable" : 0,
					"patching_rect" : [ 167.0, 438.852216748768569, 50.0, 22.0 ]
				}

			}
, 			{
				"box" : 				{
					"format" : 6,
					"id" : "obj-11",
					"maxclass" : "flonum",
					"numinlets" : 1,
					"numoutlets" : 2,
					"outlettype" : [ "", "bang" ],
					"parameter_enable" : 0,
					"patching_rect" : [ 167.0, 345.389162561576427, 50.0, 22.0 ]
				}

			}
, 			{
				"box" : 				{
					"color" : [ 0.407843137254902, 0.529411764705882, 0.36078431372549, 1.0 ],
					"id" : "obj-6",
					"linecount" : 2,
					"maxclass" : "newobj",
					"numinlets" : 2,
					"numoutlets" : 3,
					"outlettype" : [ "", "", "" ],
					"patching_rect" : [ 167.0, 307.157635467980356, 509.0, 35.0 ],
					"text" : "mvc.parameter #0 frequency @description \"filter frequency\" @unit Hz @default 1000 @min 0.001 @max 20000"
				}

			}
, 			{
				"box" : 				{
					"color" : [ 0.407843137254902, 0.529411764705882, 0.36078431372549, 1.0 ],
					"id" : "obj-38",
					"linecount" : 2,
					"maxclass" : "newobj",
					"numinlets" : 2,
					"numoutlets" : 3,
					"outlettype" : [ "", "", "" ],
					"patching_rect" : [ 167.0, 182.463054187192142, 514.0, 35.0 ],
					"text" : "mvc.parameter #0 filtermode @description \"filter mode\" @default peaknotch @options lowpass highpass bandpass bandstop peaknotch lowshelf highshelf resonant allpass"
				}

			}
, 			{
				"box" : 				{
					"color" : [ 0.407843137254902, 0.529411764705882, 0.36078431372549, 1.0 ],
					"id" : "obj-35",
					"linecount" : 2,
					"maxclass" : "newobj",
					"numinlets" : 2,
					"numoutlets" : 3,
					"outlettype" : [ "", "", "" ],
					"patching_rect" : [ 167.0, 494.083743842364584, 448.0, 35.0 ],
					"text" : "mvc.parameter #0 Q @description \"filter resonance\" @unit none @default 1. @min 0.001 @max 100"
				}

			}
, 			{
				"box" : 				{
					"color" : [ 0.407843137254902, 0.529411764705882, 0.36078431372549, 1.0 ],
					"id" : "obj-32",
					"linecount" : 2,
					"maxclass" : "newobj",
					"numinlets" : 2,
					"numoutlets" : 3,
					"outlettype" : [ "", "", "" ],
					"patching_rect" : [ 167.0, 400.620689655172498, 394.0, 35.0 ],
					"text" : "mvc.parameter #0 gain @description \"filter gain\" @unit dB @default 0 @min -24 @max 24"
				}

			}
, 			{
				"box" : 				{
					"comment" : "model settings",
					"id" : "obj-3",
					"index" : 2,
					"maxclass" : "inlet",
					"numinlets" : 0,
					"numoutlets" : 1,
					"outlettype" : [ "" ],
					"patching_rect" : [ 682.0, 45.0, 30.0, 30.0 ]
				}

			}
, 			{
				"box" : 				{
					"comment" : "data input",
					"id" : "obj-2",
					"index" : 1,
					"maxclass" : "inlet",
					"numinlets" : 0,
					"numoutlets" : 1,
					"outlettype" : [ "" ],
					"patching_rect" : [ 57.0, 45.0, 30.0, 30.0 ]
				}

			}
, 			{
				"box" : 				{
					"id" : "obj-23",
					"maxclass" : "comment",
					"numinlets" : 1,
					"numoutlets" : 0,
					"patching_rect" : [ 167.0, 152.0, 404.0, 20.0 ],
					"text" : "Some parameters attached to this model, describing a biquad filter model."
				}

			}
, 			{
				"box" : 				{
					"color" : [ 0.631372549019608, 0.203921568627451, 0.196078431372549, 1.0 ],
					"id" : "obj-14",
					"maxclass" : "newobj",
					"numinlets" : 2,
					"numoutlets" : 2,
					"outlettype" : [ "", "" ],
					"patching_rect" : [ 129.0, 77.0, 572.0, 22.0 ],
					"text" : "mvc.model #0 #1 #2 @type fakeBiquadFilterModel @autoinit 1",
					"varname" : "mvc.model"
				}

			}
 ],
		"lines" : [ 			{
				"patchline" : 				{
					"destination" : [ "obj-6", 0 ],
					"midpoints" : [ 176.5, 377.389162561576427, 154.5, 377.389162561576427, 154.5, 296.157635467980356, 176.5, 296.157635467980356 ],
					"source" : [ "obj-11", 0 ]
				}

			}
, 			{
				"patchline" : 				{
					"destination" : [ "obj-32", 0 ],
					"midpoints" : [ 176.5, 470.852216748768569, 156.5, 470.852216748768569, 156.5, 389.620689655172498, 176.5, 389.620689655172498 ],
					"source" : [ "obj-12", 0 ]
				}

			}
, 			{
				"patchline" : 				{
					"destination" : [ "obj-35", 0 ],
					"midpoints" : [ 176.5, 564.315270935960712, 160.5, 564.315270935960712, 160.5, 483.083743842364584, 176.5, 483.083743842364584 ],
					"source" : [ "obj-13", 0 ]
				}

			}
, 			{
				"patchline" : 				{
					"destination" : [ "obj-20", 0 ],
					"source" : [ "obj-14", 1 ]
				}

			}
, 			{
				"patchline" : 				{
					"destination" : [ "obj-4", 1 ],
					"source" : [ "obj-14", 0 ]
				}

			}
, 			{
				"patchline" : 				{
					"destination" : [ "obj-38", 0 ],
					"midpoints" : [ 217.0, 283.926108374384285, 159.75, 283.926108374384285, 159.75, 171.463054187192142, 176.5, 171.463054187192142 ],
					"source" : [ "obj-15", 1 ]
				}

			}
, 			{
				"patchline" : 				{
					"destination" : [ "obj-15", 0 ],
					"source" : [ "obj-18", 0 ]
				}

			}
, 			{
				"patchline" : 				{
					"destination" : [ "obj-14", 1 ],
					"source" : [ "obj-3", 0 ]
				}

			}
, 			{
				"patchline" : 				{
					"destination" : [ "obj-12", 0 ],
					"source" : [ "obj-32", 0 ]
				}

			}
, 			{
				"patchline" : 				{
					"destination" : [ "obj-13", 0 ],
					"source" : [ "obj-35", 0 ]
				}

			}
, 			{
				"patchline" : 				{
					"destination" : [ "obj-17", 1 ],
					"midpoints" : [ 176.5, 220.5, 439.0, 220.5 ],
					"order" : 0,
					"source" : [ "obj-38", 0 ]
				}

			}
, 			{
				"patchline" : 				{
					"destination" : [ "obj-18", 0 ],
					"order" : 1,
					"source" : [ "obj-38", 0 ]
				}

			}
, 			{
				"patchline" : 				{
					"destination" : [ "obj-11", 0 ],
					"source" : [ "obj-6", 0 ]
				}

			}
 ]
	}

}
