{
	"patcher" : 	{
		"fileversion" : 1,
		"appversion" : 		{
			"major" : 8,
			"minor" : 2,
			"revision" : 2,
			"architecture" : "x64",
			"modernui" : 1
		}
,
		"classnamespace" : "box",
		"rect" : [ 502.0, 291.0, 680.0, 556.0 ],
		"bglocked" : 0,
		"openinpresentation" : 0,
		"default_fontsize" : 12.0,
		"default_fontface" : 0,
		"default_fontname" : "Arial",
		"gridonopen" : 1,
		"gridsize" : [ 15.0, 15.0 ],
		"gridsnaponopen" : 1,
		"objectsnaponopen" : 1,
		"statusbarvisible" : 2,
		"toolbarvisible" : 1,
		"lefttoolbarpinned" : 0,
		"toptoolbarpinned" : 0,
		"righttoolbarpinned" : 0,
		"bottomtoolbarpinned" : 0,
		"toolbars_unpinned_last_save" : 0,
		"tallnewobj" : 0,
		"boxanimatetime" : 200,
		"enablehscroll" : 1,
		"enablevscroll" : 1,
		"devicewidth" : 0.0,
		"description" : "",
		"digest" : "",
		"tags" : "",
		"style" : "",
		"subpatcher_template" : "",
		"assistshowspatchername" : 0,
		"boxes" : [ 			{
				"box" : 				{
					"id" : "obj-13",
					"maxclass" : "newobj",
					"numinlets" : 1,
					"numoutlets" : 3,
					"outlettype" : [ "", "int", "int" ],
					"patching_rect" : [ 87.0, 238.493421052631561, 62.0, 22.0 ],
					"text" : "change -1"
				}

			}
, 			{
				"box" : 				{
					"id" : "obj-3",
					"maxclass" : "newobj",
					"numinlets" : 1,
					"numoutlets" : 2,
					"outlettype" : [ "int", "int" ],
					"patching_rect" : [ 87.0, 263.89473684210526, 108.0, 22.0 ],
					"text" : "t i i"
				}

			}
, 			{
				"box" : 				{
					"id" : "obj-20",
					"maxclass" : "newobj",
					"numinlets" : 1,
					"numoutlets" : 1,
					"outlettype" : [ "" ],
					"patching_rect" : [ 87.0, 187.69078947368422, 183.0, 22.0 ],
					"text" : "mvc.channellayout2channelcount"
				}

			}
, 			{
				"box" : 				{
					"id" : "obj-19",
					"maxclass" : "newobj",
					"numinlets" : 1,
					"numoutlets" : 1,
					"outlettype" : [ "" ],
					"patching_rect" : [ 87.0, 292.0, 184.0, 22.0 ],
					"text" : "mvc.DSPrefresh #1"
				}

			}
, 			{
				"box" : 				{
					"id" : "obj-14",
					"maxclass" : "number",
					"numinlets" : 1,
					"numoutlets" : 2,
					"outlettype" : [ "", "bang" ],
					"parameter_enable" : 0,
					"patching_rect" : [ 87.0, 213.09210526315789, 50.0, 22.0 ]
				}

			}
, 			{
				"box" : 				{
					"id" : "obj-30",
					"maxclass" : "message",
					"numinlets" : 2,
					"numoutlets" : 1,
					"outlettype" : [ "" ],
					"patching_rect" : [ 176.0, 320.0, 57.0, 22.0 ],
					"text" : "chans $1"
				}

			}
, 			{
				"box" : 				{
					"id" : "obj-9",
					"maxclass" : "newobj",
					"numinlets" : 1,
					"numoutlets" : 1,
					"outlettype" : [ "" ],
					"patcher" : 					{
						"fileversion" : 1,
						"appversion" : 						{
							"major" : 8,
							"minor" : 2,
							"revision" : 2,
							"architecture" : "x64",
							"modernui" : 1
						}
,
						"classnamespace" : "box",
						"rect" : [ 59.0, 104.0, 338.0, 279.0 ],
						"bglocked" : 0,
						"openinpresentation" : 0,
						"default_fontsize" : 12.0,
						"default_fontface" : 0,
						"default_fontname" : "Arial",
						"gridonopen" : 1,
						"gridsize" : [ 15.0, 15.0 ],
						"gridsnaponopen" : 1,
						"objectsnaponopen" : 1,
						"statusbarvisible" : 2,
						"toolbarvisible" : 1,
						"lefttoolbarpinned" : 0,
						"toptoolbarpinned" : 0,
						"righttoolbarpinned" : 0,
						"bottomtoolbarpinned" : 0,
						"toolbars_unpinned_last_save" : 0,
						"tallnewobj" : 0,
						"boxanimatetime" : 200,
						"enablehscroll" : 1,
						"enablevscroll" : 1,
						"devicewidth" : 0.0,
						"description" : "",
						"digest" : "",
						"tags" : "",
						"style" : "",
						"subpatcher_template" : "",
						"assistshowspatchername" : 0,
						"boxes" : [ 							{
								"box" : 								{
									"id" : "obj-6",
									"maxclass" : "newobj",
									"numinlets" : 1,
									"numoutlets" : 1,
									"outlettype" : [ "" ],
									"patching_rect" : [ 150.0, 167.0, 86.0, 22.0 ],
									"text" : "prepend name"
								}

							}
, 							{
								"box" : 								{
									"id" : "obj-9",
									"maxclass" : "button",
									"numinlets" : 1,
									"numoutlets" : 1,
									"outlettype" : [ "bang" ],
									"parameter_enable" : 0,
									"patching_rect" : [ 59.0, 106.0, 24.0, 24.0 ]
								}

							}
, 							{
								"box" : 								{
									"id" : "obj-5",
									"maxclass" : "message",
									"numinlets" : 2,
									"numoutlets" : 1,
									"outlettype" : [ "" ],
									"patching_rect" : [ 59.0, 137.0, 61.0, 22.0 ],
									"text" : "channel.1"
								}

							}
, 							{
								"box" : 								{
									"id" : "obj-1",
									"maxclass" : "newobj",
									"numinlets" : 2,
									"numoutlets" : 2,
									"outlettype" : [ "bang", "" ],
									"patching_rect" : [ 59.0, 78.0, 110.0, 22.0 ],
									"text" : "sel 1"
								}

							}
, 							{
								"box" : 								{
									"id" : "obj-22",
									"maxclass" : "newobj",
									"numinlets" : 1,
									"numoutlets" : 1,
									"outlettype" : [ "" ],
									"patching_rect" : [ 150.0, 113.0, 173.0, 22.0 ],
									"text" : "sprintf symout channel.{1..%ld}"
								}

							}
, 							{
								"box" : 								{
									"comment" : "",
									"id" : "obj-11",
									"index" : 1,
									"maxclass" : "inlet",
									"numinlets" : 0,
									"numoutlets" : 1,
									"outlettype" : [ "" ],
									"patching_rect" : [ 59.0, 40.0, 30.0, 30.0 ]
								}

							}
, 							{
								"box" : 								{
									"comment" : "",
									"id" : "obj-12",
									"index" : 1,
									"maxclass" : "outlet",
									"numinlets" : 1,
									"numoutlets" : 0,
									"patching_rect" : [ 150.0, 195.0, 30.0, 30.0 ]
								}

							}
 ],
						"lines" : [ 							{
								"patchline" : 								{
									"destination" : [ "obj-22", 0 ],
									"source" : [ "obj-1", 1 ]
								}

							}
, 							{
								"patchline" : 								{
									"destination" : [ "obj-9", 0 ],
									"source" : [ "obj-1", 0 ]
								}

							}
, 							{
								"patchline" : 								{
									"destination" : [ "obj-1", 0 ],
									"source" : [ "obj-11", 0 ]
								}

							}
, 							{
								"patchline" : 								{
									"destination" : [ "obj-6", 0 ],
									"source" : [ "obj-22", 0 ]
								}

							}
, 							{
								"patchline" : 								{
									"destination" : [ "obj-6", 0 ],
									"source" : [ "obj-5", 0 ]
								}

							}
, 							{
								"patchline" : 								{
									"destination" : [ "obj-12", 0 ],
									"source" : [ "obj-6", 0 ]
								}

							}
, 							{
								"patchline" : 								{
									"destination" : [ "obj-5", 0 ],
									"source" : [ "obj-9", 0 ]
								}

							}
 ]
					}
,
					"patching_rect" : [ 87.0, 320.0, 87.0, 22.0 ],
					"saved_object_attributes" : 					{
						"description" : "",
						"digest" : "",
						"globalpatchername" : "",
						"tags" : ""
					}
,
					"text" : "p format-name"
				}

			}
, 			{
				"box" : 				{
					"data" : 					{
						"patcher" : 						{
							"fileversion" : 1,
							"appversion" : 							{
								"major" : 8,
								"minor" : 2,
								"revision" : 2,
								"architecture" : "x64",
								"modernui" : 1
							}
,
							"classnamespace" : "dsp.gen",
							"rect" : [ 59.0, 106.0, 600.0, 450.0 ],
							"bglocked" : 0,
							"openinpresentation" : 0,
							"default_fontsize" : 12.0,
							"default_fontface" : 0,
							"default_fontname" : "Arial",
							"gridonopen" : 1,
							"gridsize" : [ 15.0, 15.0 ],
							"gridsnaponopen" : 1,
							"objectsnaponopen" : 1,
							"statusbarvisible" : 2,
							"toolbarvisible" : 1,
							"lefttoolbarpinned" : 0,
							"toptoolbarpinned" : 0,
							"righttoolbarpinned" : 0,
							"bottomtoolbarpinned" : 0,
							"toolbars_unpinned_last_save" : 0,
							"tallnewobj" : 0,
							"boxanimatetime" : 200,
							"enablehscroll" : 1,
							"enablevscroll" : 1,
							"devicewidth" : 0.0,
							"description" : "",
							"digest" : "",
							"tags" : "",
							"style" : "",
							"subpatcher_template" : "",
							"assistshowspatchername" : 0,
							"boxes" : [ 								{
									"box" : 									{
										"maxclass" : "newobj",
										"text" : "slide 100 100",
										"numinlets" : 1,
										"numoutlets" : 1,
										"patching_rect" : [ 186.0, 99.0, 80.0, 22.0 ],
										"outlettype" : [ "" ],
										"id" : "obj-9"
									}

								}
, 								{
									"box" : 									{
										"maxclass" : "newobj",
										"text" : "slide 100 100",
										"numinlets" : 1,
										"numoutlets" : 1,
										"patching_rect" : [ 294.5, 162.0, 80.0, 22.0 ],
										"outlettype" : [ "" ],
										"id" : "obj-8"
									}

								}
, 								{
									"box" : 									{
										"maxclass" : "newobj",
										"text" : "param feedback @min 0 @max 1 @default 0.5",
										"numinlets" : 0,
										"numoutlets" : 1,
										"patching_rect" : [ 294.5, 124.0, 259.0, 22.0 ],
										"outlettype" : [ "" ],
										"id" : "obj-7"
									}

								}
, 								{
									"box" : 									{
										"maxclass" : "newobj",
										"text" : "param time",
										"numinlets" : 0,
										"numoutlets" : 1,
										"patching_rect" : [ 186.0, 65.0, 69.0, 22.0 ],
										"outlettype" : [ "" ],
										"id" : "obj-6"
									}

								}
, 								{
									"box" : 									{
										"maxclass" : "newobj",
										"text" : "*",
										"numinlets" : 2,
										"numoutlets" : 1,
										"patching_rect" : [ 253.0, 202.0, 29.5, 22.0 ],
										"outlettype" : [ "" ],
										"id" : "obj-5"
									}

								}
, 								{
									"box" : 									{
										"maxclass" : "newobj",
										"text" : "in 1",
										"numinlets" : 0,
										"numoutlets" : 1,
										"patching_rect" : [ 50.0, 14.0, 28.0, 22.0 ],
										"outlettype" : [ "" ],
										"id" : "obj-1"
									}

								}
, 								{
									"box" : 									{
										"maxclass" : "newobj",
										"text" : "delay 240000 @feedback 1",
										"numinlets" : 2,
										"numoutlets" : 1,
										"patching_rect" : [ 50.0, 132.0, 155.0, 22.0 ],
										"outlettype" : [ "" ],
										"id" : "obj-3"
									}

								}
, 								{
									"box" : 									{
										"maxclass" : "newobj",
										"text" : "out 1",
										"numinlets" : 1,
										"numoutlets" : 0,
										"patching_rect" : [ 50.0, 258.0, 35.0, 22.0 ],
										"id" : "obj-4"
									}

								}
 ],
							"lines" : [ 								{
									"patchline" : 									{
										"source" : [ "obj-3", 0 ],
										"destination" : [ "obj-4", 0 ],
										"order" : 1
									}

								}
, 								{
									"patchline" : 									{
										"source" : [ "obj-1", 0 ],
										"destination" : [ "obj-3", 0 ]
									}

								}
, 								{
									"patchline" : 									{
										"source" : [ "obj-3", 0 ],
										"destination" : [ "obj-5", 0 ],
										"order" : 0
									}

								}
, 								{
									"patchline" : 									{
										"source" : [ "obj-5", 0 ],
										"destination" : [ "obj-3", 0 ]
									}

								}
, 								{
									"patchline" : 									{
										"source" : [ "obj-7", 0 ],
										"destination" : [ "obj-8", 0 ]
									}

								}
, 								{
									"patchline" : 									{
										"source" : [ "obj-8", 0 ],
										"destination" : [ "obj-5", 1 ]
									}

								}
, 								{
									"patchline" : 									{
										"source" : [ "obj-9", 0 ],
										"destination" : [ "obj-3", 1 ]
									}

								}
, 								{
									"patchline" : 									{
										"source" : [ "obj-6", 0 ],
										"destination" : [ "obj-9", 0 ]
									}

								}
 ]
						}

					}
,
					"id" : "obj-17",
					"maxclass" : "newobj",
					"numinlets" : 1,
					"numoutlets" : 1,
					"outlettype" : [ "multichannelsignal" ],
					"patching_rect" : [ 176.0, 436.0, 238.0, 22.0 ],
					"text" : "mc.gen~ @busymapname #0.busymap",
					"wrapper_uniquekey" : "u859135776"
				}

			}
, 			{
				"box" : 				{
					"color" : [ 0.843137254901961, 0.647058823529412, 0.611764705882353, 1.0 ],
					"fontsize" : 14.0,
					"id" : "obj-12",
					"maxclass" : "newobj",
					"numinlets" : 2,
					"numoutlets" : 3,
					"outlettype" : [ "", "", "" ],
					"patching_rect" : [ 199.0, 360.0, 358.0, 24.0 ],
					"text" : "mvc.tapdelay~.model #0.delay #0 channel.1"
				}

			}
, 			{
				"box" : 				{
					"comment" : "dumpout",
					"id" : "obj-7",
					"index" : 2,
					"maxclass" : "outlet",
					"numinlets" : 1,
					"numoutlets" : 0,
					"patching_rect" : [ 607.0, 440.5, 30.0, 30.0 ]
				}

			}
, 			{
				"box" : 				{
					"id" : "obj-8",
					"maxclass" : "newobj",
					"numinlets" : 0,
					"numoutlets" : 0,
					"patching_rect" : [ 478.0, 58.0, 115.0, 22.0 ],
					"text" : "mvc.isloading #0"
				}

			}
, 			{
				"box" : 				{
					"id" : "obj-55",
					"maxclass" : "newobj",
					"numinlets" : 2,
					"numoutlets" : 2,
					"outlettype" : [ "multichannelsignal", "multichannelsignal" ],
					"patching_rect" : [ 24.0, 403.0, 135.0, 22.0 ],
					"text" : "mvc.bypass.multi #0"
				}

			}
, 			{
				"box" : 				{
					"color" : [ 0.407843137254902, 0.529411764705882, 0.36078431372549, 1.0 ],
					"id" : "obj-4",
					"linecount" : 2,
					"maxclass" : "newobj",
					"numinlets" : 2,
					"numoutlets" : 3,
					"outlettype" : [ "", "", "" ],
					"patching_rect" : [ 87.0, 150.69078947368422, 331.0, 35.0 ],
					"text" : "mvc.parameter #0 channelcount @description \"Number of channels\" @default Mono @min 1 @max 128 @clip both"
				}

			}
, 			{
				"box" : 				{
					"comment" : "",
					"id" : "obj-21",
					"index" : 2,
					"maxclass" : "inlet",
					"numinlets" : 0,
					"numoutlets" : 1,
					"outlettype" : [ "" ],
					"patching_rect" : [ 607.0, 54.0, 30.0, 30.0 ]
				}

			}
, 			{
				"box" : 				{
					"comment" : "",
					"id" : "obj-2",
					"index" : 1,
					"maxclass" : "outlet",
					"numinlets" : 1,
					"numoutlets" : 0,
					"patching_rect" : [ 24.0, 480.5, 30.0, 30.0 ]
				}

			}
, 			{
				"box" : 				{
					"comment" : "",
					"id" : "obj-1",
					"index" : 1,
					"maxclass" : "inlet",
					"numinlets" : 0,
					"numoutlets" : 1,
					"outlettype" : [ "" ],
					"patching_rect" : [ 24.0, 50.0, 30.0, 30.0 ]
				}

			}
, 			{
				"box" : 				{
					"color" : [ 0.631372549019608, 0.203921568627451, 0.196078431372549, 1.0 ],
					"fontsize" : 14.0,
					"id" : "obj-5",
					"maxclass" : "newobj",
					"numinlets" : 2,
					"numoutlets" : 2,
					"outlettype" : [ "", "" ],
					"patching_rect" : [ 51.0, 99.5, 575.0, 24.0 ],
					"text" : "mvc.model #0 #1 #2 @type mc.tapdelay~ @autoinit 1",
					"varname" : "mvc.model"
				}

			}
 ],
		"lines" : [ 			{
				"patchline" : 				{
					"destination" : [ "obj-55", 0 ],
					"source" : [ "obj-1", 0 ]
				}

			}
, 			{
				"patchline" : 				{
					"destination" : [ "obj-17", 0 ],
					"source" : [ "obj-12", 1 ]
				}

			}
, 			{
				"patchline" : 				{
					"destination" : [ "obj-55", 1 ],
					"source" : [ "obj-12", 0 ]
				}

			}
, 			{
				"patchline" : 				{
					"destination" : [ "obj-7", 0 ],
					"source" : [ "obj-12", 2 ]
				}

			}
, 			{
				"patchline" : 				{
					"destination" : [ "obj-3", 0 ],
					"source" : [ "obj-13", 0 ]
				}

			}
, 			{
				"patchline" : 				{
					"destination" : [ "obj-13", 0 ],
					"source" : [ "obj-14", 0 ]
				}

			}
, 			{
				"patchline" : 				{
					"destination" : [ "obj-2", 0 ],
					"midpoints" : [ 185.5, 468.75, 33.5, 468.75 ],
					"source" : [ "obj-17", 0 ]
				}

			}
, 			{
				"patchline" : 				{
					"destination" : [ "obj-9", 0 ],
					"source" : [ "obj-19", 0 ]
				}

			}
, 			{
				"patchline" : 				{
					"destination" : [ "obj-14", 0 ],
					"source" : [ "obj-20", 0 ]
				}

			}
, 			{
				"patchline" : 				{
					"destination" : [ "obj-5", 1 ],
					"source" : [ "obj-21", 0 ]
				}

			}
, 			{
				"patchline" : 				{
					"destination" : [ "obj-19", 0 ],
					"source" : [ "obj-3", 0 ]
				}

			}
, 			{
				"patchline" : 				{
					"destination" : [ "obj-30", 0 ],
					"source" : [ "obj-3", 1 ]
				}

			}
, 			{
				"patchline" : 				{
					"destination" : [ "obj-17", 0 ],
					"order" : 0,
					"source" : [ "obj-30", 0 ]
				}

			}
, 			{
				"patchline" : 				{
					"destination" : [ "obj-55", 1 ],
					"order" : 1,
					"source" : [ "obj-30", 0 ]
				}

			}
, 			{
				"patchline" : 				{
					"destination" : [ "obj-20", 0 ],
					"source" : [ "obj-4", 0 ]
				}

			}
, 			{
				"patchline" : 				{
					"destination" : [ "obj-7", 0 ],
					"source" : [ "obj-5", 1 ]
				}

			}
, 			{
				"patchline" : 				{
					"destination" : [ "obj-17", 0 ],
					"source" : [ "obj-55", 1 ]
				}

			}
, 			{
				"patchline" : 				{
					"destination" : [ "obj-2", 0 ],
					"source" : [ "obj-55", 0 ]
				}

			}
, 			{
				"patchline" : 				{
					"destination" : [ "obj-12", 1 ],
					"midpoints" : [ 96.5, 350.5, 547.5, 350.5 ],
					"source" : [ "obj-9", 0 ]
				}

			}
 ]
	}

}
