{
	"patcher" : 	{
		"fileversion" : 1,
		"appversion" : 		{
			"major" : 8,
			"minor" : 2,
			"revision" : 2,
			"architecture" : "x64",
			"modernui" : 1
		}
,
		"classnamespace" : "box",
		"rect" : [ 315.0, 203.0, 632.0, 279.0 ],
		"bglocked" : 0,
		"openinpresentation" : 0,
		"default_fontsize" : 12.0,
		"default_fontface" : 0,
		"default_fontname" : "Arial",
		"gridonopen" : 1,
		"gridsize" : [ 15.0, 15.0 ],
		"gridsnaponopen" : 1,
		"objectsnaponopen" : 1,
		"statusbarvisible" : 2,
		"toolbarvisible" : 1,
		"lefttoolbarpinned" : 0,
		"toptoolbarpinned" : 0,
		"righttoolbarpinned" : 0,
		"bottomtoolbarpinned" : 0,
		"toolbars_unpinned_last_save" : 0,
		"tallnewobj" : 0,
		"boxanimatetime" : 200,
		"enablehscroll" : 1,
		"enablevscroll" : 1,
		"devicewidth" : 0.0,
		"description" : "",
		"digest" : "",
		"tags" : "",
		"style" : "",
		"subpatcher_template" : "",
		"assistshowspatchername" : 0,
		"boxes" : [ 			{
				"box" : 				{
					"data" : 					{
						"patcher" : 						{
							"fileversion" : 1,
							"appversion" : 							{
								"major" : 8,
								"minor" : 2,
								"revision" : 2,
								"architecture" : "x64",
								"modernui" : 1
							}
,
							"classnamespace" : "dsp.gen",
							"rect" : [ 59.0, 106.0, 600.0, 450.0 ],
							"bglocked" : 0,
							"openinpresentation" : 0,
							"default_fontsize" : 12.0,
							"default_fontface" : 0,
							"default_fontname" : "Arial",
							"gridonopen" : 1,
							"gridsize" : [ 15.0, 15.0 ],
							"gridsnaponopen" : 1,
							"objectsnaponopen" : 1,
							"statusbarvisible" : 2,
							"toolbarvisible" : 1,
							"lefttoolbarpinned" : 0,
							"toptoolbarpinned" : 0,
							"righttoolbarpinned" : 0,
							"bottomtoolbarpinned" : 0,
							"toolbars_unpinned_last_save" : 0,
							"tallnewobj" : 0,
							"boxanimatetime" : 200,
							"enablehscroll" : 1,
							"enablevscroll" : 1,
							"devicewidth" : 0.0,
							"description" : "",
							"digest" : "",
							"tags" : "",
							"style" : "",
							"subpatcher_template" : "",
							"assistshowspatchername" : 0,
							"boxes" : [ 								{
									"box" : 									{
										"maxclass" : "newobj",
										"text" : "slide 100 100",
										"outlettype" : [ "" ],
										"patching_rect" : [ 186.0, 99.0, 80.0, 22.0 ],
										"numinlets" : 1,
										"id" : "obj-9",
										"numoutlets" : 1
									}

								}
, 								{
									"box" : 									{
										"maxclass" : "newobj",
										"text" : "slide 100 100",
										"outlettype" : [ "" ],
										"patching_rect" : [ 294.5, 162.0, 80.0, 22.0 ],
										"numinlets" : 1,
										"id" : "obj-8",
										"numoutlets" : 1
									}

								}
, 								{
									"box" : 									{
										"maxclass" : "newobj",
										"text" : "param feedback @min 0 @max 1 @default 0.5",
										"outlettype" : [ "" ],
										"patching_rect" : [ 294.5, 124.0, 259.0, 22.0 ],
										"numinlets" : 0,
										"id" : "obj-7",
										"numoutlets" : 1
									}

								}
, 								{
									"box" : 									{
										"maxclass" : "newobj",
										"text" : "param time",
										"outlettype" : [ "" ],
										"patching_rect" : [ 186.0, 65.0, 69.0, 22.0 ],
										"numinlets" : 0,
										"id" : "obj-6",
										"numoutlets" : 1
									}

								}
, 								{
									"box" : 									{
										"maxclass" : "newobj",
										"text" : "*",
										"outlettype" : [ "" ],
										"patching_rect" : [ 253.0, 202.0, 29.5, 22.0 ],
										"numinlets" : 2,
										"id" : "obj-5",
										"numoutlets" : 1
									}

								}
, 								{
									"box" : 									{
										"maxclass" : "newobj",
										"text" : "in 1",
										"outlettype" : [ "" ],
										"patching_rect" : [ 50.0, 14.0, 28.0, 22.0 ],
										"numinlets" : 0,
										"id" : "obj-1",
										"numoutlets" : 1
									}

								}
, 								{
									"box" : 									{
										"maxclass" : "newobj",
										"text" : "delay 240000 @feedback 1",
										"outlettype" : [ "" ],
										"patching_rect" : [ 50.0, 132.0, 155.0, 22.0 ],
										"numinlets" : 2,
										"id" : "obj-3",
										"numoutlets" : 1
									}

								}
, 								{
									"box" : 									{
										"maxclass" : "newobj",
										"text" : "out 1",
										"patching_rect" : [ 50.0, 258.0, 35.0, 22.0 ],
										"numinlets" : 1,
										"id" : "obj-4",
										"numoutlets" : 0
									}

								}
 ],
							"lines" : [ 								{
									"patchline" : 									{
										"source" : [ "obj-6", 0 ],
										"destination" : [ "obj-9", 0 ]
									}

								}
, 								{
									"patchline" : 									{
										"source" : [ "obj-9", 0 ],
										"destination" : [ "obj-3", 1 ]
									}

								}
, 								{
									"patchline" : 									{
										"source" : [ "obj-8", 0 ],
										"destination" : [ "obj-5", 1 ]
									}

								}
, 								{
									"patchline" : 									{
										"source" : [ "obj-7", 0 ],
										"destination" : [ "obj-8", 0 ]
									}

								}
, 								{
									"patchline" : 									{
										"source" : [ "obj-5", 0 ],
										"destination" : [ "obj-3", 0 ]
									}

								}
, 								{
									"patchline" : 									{
										"source" : [ "obj-3", 0 ],
										"destination" : [ "obj-5", 0 ],
										"order" : 0
									}

								}
, 								{
									"patchline" : 									{
										"source" : [ "obj-1", 0 ],
										"destination" : [ "obj-3", 0 ]
									}

								}
, 								{
									"patchline" : 									{
										"source" : [ "obj-3", 0 ],
										"destination" : [ "obj-4", 0 ],
										"order" : 1
									}

								}
 ]
						}

					}
,
					"id" : "obj-9",
					"maxclass" : "newobj",
					"numinlets" : 1,
					"numoutlets" : 1,
					"outlettype" : [ "multichannelsignal" ],
					"patching_rect" : [ 144.0, 175.0, 238.0, 22.0 ],
					"text" : "mc.gen~ @busymapname #0.busymap",
					"wrapper_uniquekey" : "u350042915"
				}

			}
, 			{
				"box" : 				{
					"id" : "obj-11",
					"maxclass" : "newobj",
					"numinlets" : 2,
					"numoutlets" : 2,
					"outlettype" : [ "multichannelsignal", "multichannelsignal" ],
					"patching_rect" : [ 24.0, 126.0, 139.0, 22.0 ],
					"text" : "mvc.bypass.mono #0"
				}

			}
, 			{
				"box" : 				{
					"color" : [ 0.843137254901961, 0.647058823529412, 0.611764705882353, 1.0 ],
					"fontsize" : 14.0,
					"id" : "obj-10",
					"maxclass" : "newobj",
					"numinlets" : 2,
					"numoutlets" : 3,
					"outlettype" : [ "", "", "" ],
					"patching_rect" : [ 144.0, 90.0, 437.0, 24.0 ],
					"text" : "mvc.tapdelay~.model #0 #1 #2 @autoinit 1",
					"varname" : "mvc.delay~.model"
				}

			}
, 			{
				"box" : 				{
					"comment" : "dumpout",
					"id" : "obj-8",
					"index" : 2,
					"maxclass" : "outlet",
					"numinlets" : 1,
					"numoutlets" : 0,
					"patching_rect" : [ 562.0, 232.5, 30.0, 30.0 ]
				}

			}
, 			{
				"box" : 				{
					"id" : "obj-4",
					"maxclass" : "newobj",
					"numinlets" : 0,
					"numoutlets" : 0,
					"patching_rect" : [ 411.0, 50.5, 115.0, 22.0 ],
					"text" : "mvc.isloading #0"
				}

			}
, 			{
				"box" : 				{
					"comment" : "settings",
					"id" : "obj-21",
					"index" : 2,
					"maxclass" : "inlet",
					"numinlets" : 0,
					"numoutlets" : 1,
					"outlettype" : [ "" ],
					"patching_rect" : [ 562.0, 42.5, 30.0, 30.0 ]
				}

			}
, 			{
				"box" : 				{
					"comment" : "audio output",
					"id" : "obj-2",
					"index" : 1,
					"maxclass" : "outlet",
					"numinlets" : 1,
					"numoutlets" : 0,
					"patching_rect" : [ 24.0, 232.5, 30.0, 30.0 ]
				}

			}
, 			{
				"box" : 				{
					"comment" : "audio input",
					"id" : "obj-1",
					"index" : 1,
					"maxclass" : "inlet",
					"numinlets" : 0,
					"numoutlets" : 1,
					"outlettype" : [ "multichannelsignal" ],
					"patching_rect" : [ 24.0, 38.5, 30.0, 30.0 ]
				}

			}
 ],
		"lines" : [ 			{
				"patchline" : 				{
					"destination" : [ "obj-11", 0 ],
					"source" : [ "obj-1", 0 ]
				}

			}
, 			{
				"patchline" : 				{
					"destination" : [ "obj-11", 1 ],
					"source" : [ "obj-10", 0 ]
				}

			}
, 			{
				"patchline" : 				{
					"destination" : [ "obj-8", 0 ],
					"source" : [ "obj-10", 2 ]
				}

			}
, 			{
				"patchline" : 				{
					"destination" : [ "obj-9", 0 ],
					"midpoints" : [ 362.5, 167.0, 153.5, 167.0 ],
					"source" : [ "obj-10", 1 ]
				}

			}
, 			{
				"patchline" : 				{
					"destination" : [ "obj-2", 0 ],
					"source" : [ "obj-11", 0 ]
				}

			}
, 			{
				"patchline" : 				{
					"destination" : [ "obj-9", 0 ],
					"source" : [ "obj-11", 1 ]
				}

			}
, 			{
				"patchline" : 				{
					"destination" : [ "obj-10", 1 ],
					"source" : [ "obj-21", 0 ]
				}

			}
, 			{
				"patchline" : 				{
					"destination" : [ "obj-2", 0 ],
					"source" : [ "obj-9", 0 ]
				}

			}
 ]
	}

}
